<svg width="343" height="86" viewBox="0 0 343 86" fill="none" xmlns="http://www.w3.org/2000/svg">
<g clip-path="url(#clip0_168_168)">
<path d="M27.1177 21.9054C29.997 21.9054 32.3311 19.5712 32.3311 16.6919C32.3311 13.8125 29.997 11.4784 27.1177 11.4784C24.2383 11.4784 21.9042 13.8125 21.9042 16.6919C21.9042 19.5712 24.2383 21.9054 27.1177 21.9054Z" fill="white" stroke="white" stroke-width="2.09209" stroke-miterlimit="10"/>
<path d="M16.6907 21.9054C19.57 21.9054 21.9041 19.5712 21.9041 16.6919C21.9041 13.8125 19.57 11.4784 16.6907 11.4784C13.8113 11.4784 11.4772 13.8125 11.4772 16.6919C11.4772 19.5712 13.8113 21.9054 16.6907 21.9054Z" fill="white" stroke="white" stroke-width="2.09209" stroke-miterlimit="10"/>
<path d="M27.1177 32.3325C29.997 32.3325 32.3311 29.9983 32.3311 27.119C32.3311 24.2397 29.997 21.9055 27.1177 21.9055C24.2383 21.9055 21.9042 24.2397 21.9042 27.119C21.9042 29.9983 24.2383 32.3325 27.1177 32.3325Z" fill="white" stroke="white" stroke-width="2.09209" stroke-miterlimit="10"/>
<path d="M27.1177 42.7594C29.997 42.7594 32.3311 40.4252 32.3311 37.5459C32.3311 34.6666 29.997 32.3324 27.1177 32.3324C24.2383 32.3324 21.9042 34.6666 21.9042 37.5459C21.9042 40.4252 24.2383 42.7594 27.1177 42.7594Z" fill="white" stroke="white" stroke-width="2.09209" stroke-miterlimit="10"/>
<path d="M27.1177 53.1906C29.997 53.1906 32.3311 50.8565 32.3311 47.9772C32.3311 45.0978 29.997 42.7637 27.1177 42.7637C24.2383 42.7637 21.9042 45.0978 21.9042 47.9772C21.9042 50.8565 24.2383 53.1906 27.1177 53.1906Z" fill="white" stroke="white" stroke-width="2.09209" stroke-miterlimit="10"/>
<path d="M27.1177 63.6175C29.997 63.6175 32.3311 61.2834 32.3311 58.404C32.3311 55.5247 29.997 53.1906 27.1177 53.1906C24.2383 53.1906 21.9042 55.5247 21.9042 58.404C21.9042 61.2834 24.2383 63.6175 27.1177 63.6175Z" fill="white" stroke="white" stroke-width="2.09209" stroke-miterlimit="10"/>
<path d="M27.1177 74.0446C29.997 74.0446 32.3311 71.7105 32.3311 68.8312C32.3311 65.9518 29.997 63.6177 27.1177 63.6177C24.2383 63.6177 21.9042 65.9518 21.9042 68.8312C21.9042 71.7105 24.2383 74.0446 27.1177 74.0446Z" fill="white" stroke="white" stroke-width="2.09209" stroke-miterlimit="10"/>
<path d="M27.1177 11.4742C29.997 11.4742 32.3311 9.14005 32.3311 6.26072C32.3311 3.3814 29.997 1.04724 27.1177 1.04724C24.2383 1.04724 21.9042 3.3814 21.9042 6.26072C21.9042 9.14005 24.2383 11.4742 27.1177 11.4742Z" fill="white" stroke="white" stroke-width="2.09209" stroke-miterlimit="10"/>
<path d="M6.2595 32.3325C9.13883 32.3325 11.473 29.9983 11.473 27.119C11.473 24.2397 9.13883 21.9055 6.2595 21.9055C3.38018 21.9055 1.04602 24.2397 1.04602 27.119C1.04602 29.9983 3.38018 32.3325 6.2595 32.3325Z" fill="white" stroke="white" stroke-width="2.09209" stroke-miterlimit="10"/>
<path d="M27.1177 84.4757C29.997 84.4757 32.3311 82.1415 32.3311 79.2622C32.3311 76.3829 29.997 74.0487 27.1177 74.0487C24.2383 74.0487 21.9042 76.3829 21.9042 79.2622C21.9042 82.1415 24.2383 84.4757 27.1177 84.4757Z" fill="white" stroke="white" stroke-width="2.09209" stroke-miterlimit="10"/>
<path d="M62.5116 22.3824C65.3909 22.3824 67.7251 20.0483 67.7251 17.1689C67.7251 14.2896 65.3909 11.9554 62.5116 11.9554C59.6322 11.9554 57.2981 14.2896 57.2981 17.1689C57.2981 20.0483 59.6322 22.3824 62.5116 22.3824Z" fill="white" stroke="white" stroke-width="2.09209" stroke-miterlimit="10"/>
<path d="M83.3697 84.9527C86.2491 84.9527 88.5832 82.6186 88.5832 79.7392C88.5832 76.8599 86.2491 74.5258 83.3697 74.5258C80.4904 74.5258 78.1562 76.8599 78.1562 79.7392C78.1562 82.6186 80.4904 84.9527 83.3697 84.9527Z" fill="white" stroke="white" stroke-width="2.09209" stroke-miterlimit="10"/>
<path d="M72.9427 84.9527C75.8221 84.9527 78.1562 82.6186 78.1562 79.7392C78.1562 76.8599 75.8221 74.5258 72.9427 74.5258C70.0634 74.5258 67.7292 76.8599 67.7292 79.7392C67.7292 82.6186 70.0634 84.9527 72.9427 84.9527Z" fill="white" stroke="white" stroke-width="2.09209" stroke-miterlimit="10"/>
<path d="M62.5116 74.5256C65.3909 74.5256 67.7251 72.1914 67.7251 69.3121C67.7251 66.4328 65.3909 64.0986 62.5116 64.0986C59.6322 64.0986 57.2981 66.4328 57.2981 69.3121C57.2981 72.1914 59.6322 74.5256 62.5116 74.5256Z" fill="white" stroke="white" stroke-width="2.09209" stroke-miterlimit="10"/>
<path d="M93.7966 84.9527C96.6759 84.9527 99.0101 82.6186 99.0101 79.7392C99.0101 76.8599 96.6759 74.5258 93.7966 74.5258C90.9173 74.5258 88.5831 76.8599 88.5831 79.7392C88.5831 82.6186 90.9173 84.9527 93.7966 84.9527Z" fill="white" stroke="white" stroke-width="2.09209" stroke-miterlimit="10"/>
<path d="M83.3697 11.9513C86.2491 11.9513 88.5832 9.6171 88.5832 6.73778C88.5832 3.85845 86.2491 1.52429 83.3697 1.52429C80.4904 1.52429 78.1562 3.85845 78.1562 6.73778C78.1562 9.6171 80.4904 11.9513 83.3697 11.9513Z" fill="white" stroke="white" stroke-width="2.09209" stroke-miterlimit="10"/>
<path d="M72.9427 11.9513C75.8221 11.9513 78.1562 9.6171 78.1562 6.73778C78.1562 3.85845 75.8221 1.52429 72.9427 1.52429C70.0634 1.52429 67.7292 3.85845 67.7292 6.73778C67.7292 9.6171 70.0634 11.9513 72.9427 11.9513Z" fill="white" stroke="white" stroke-width="2.09209" stroke-miterlimit="10"/>
<path d="M93.7966 11.9513C96.6759 11.9513 99.0101 9.6171 99.0101 6.73778C99.0101 3.85845 96.6759 1.52429 93.7966 1.52429C90.9173 1.52429 88.5831 3.85845 88.5831 6.73778C88.5831 9.6171 90.9173 11.9513 93.7966 11.9513Z" fill="white" stroke="white" stroke-width="2.09209" stroke-miterlimit="10"/>
<path d="M104.228 84.9527C107.107 84.9527 109.441 82.6186 109.441 79.7392C109.441 76.8599 107.107 74.5258 104.228 74.5258C101.349 74.5258 99.0144 76.8599 99.0144 79.7392C99.0144 82.6186 101.349 84.9527 104.228 84.9527Z" fill="white" stroke="white" stroke-width="2.09209" stroke-miterlimit="10"/>
<path d="M104.228 11.9513C107.107 11.9513 109.441 9.6171 109.441 6.73778C109.441 3.85845 107.107 1.52429 104.228 1.52429C101.349 1.52429 99.0144 3.85845 99.0144 6.73778C99.0144 9.6171 101.349 11.9513 104.228 11.9513Z" fill="white" stroke="white" stroke-width="2.09209" stroke-miterlimit="10"/>
<path d="M62.5116 32.8095C65.3909 32.8095 67.7251 30.4754 67.7251 27.596C67.7251 24.7167 65.3909 22.3826 62.5116 22.3826C59.6322 22.3826 57.2981 24.7167 57.2981 27.596C57.2981 30.4754 59.6322 32.8095 62.5116 32.8095Z" fill="white" stroke="white" stroke-width="2.09209" stroke-miterlimit="10"/>
<path d="M62.5116 43.2363C65.3909 43.2363 67.7251 40.9021 67.7251 38.0228C67.7251 35.1435 65.3909 32.8093 62.5116 32.8093C59.6322 32.8093 57.2981 35.1435 57.2981 38.0228C57.2981 40.9021 59.6322 43.2363 62.5116 43.2363Z" fill="white" stroke="white" stroke-width="2.09209" stroke-miterlimit="10"/>
<path d="M62.5116 53.6674C65.3909 53.6674 67.7251 51.3333 67.7251 48.454C67.7251 45.5746 65.3909 43.2405 62.5116 43.2405C59.6322 43.2405 57.2981 45.5746 57.2981 48.454C57.2981 51.3333 59.6322 53.6674 62.5116 53.6674Z" fill="white" stroke="white" stroke-width="2.09209" stroke-miterlimit="10"/>
<path d="M62.5116 64.0946C65.3909 64.0946 67.7251 61.7604 67.7251 58.8811C67.7251 56.0018 65.3909 53.6676 62.5116 53.6676C59.6322 53.6676 57.2981 56.0018 57.2981 58.8811C57.2981 61.7604 59.6322 64.0946 62.5116 64.0946Z" fill="white" stroke="white" stroke-width="2.09209" stroke-miterlimit="10"/>
<path d="M114.655 74.5256C117.534 74.5256 119.868 72.1914 119.868 69.3121C119.868 66.4328 117.534 64.0986 114.655 64.0986C111.776 64.0986 109.441 66.4328 109.441 69.3121C109.441 72.1914 111.776 74.5256 114.655 74.5256Z" fill="white" stroke="white" stroke-width="2.09209" stroke-miterlimit="10"/>
<path d="M114.655 64.0946C117.534 64.0946 119.868 61.7604 119.868 58.8811C119.868 56.0018 117.534 53.6676 114.655 53.6676C111.776 53.6676 109.441 56.0018 109.441 58.8811C109.441 61.7604 111.776 64.0946 114.655 64.0946Z" fill="white" stroke="white" stroke-width="2.09209" stroke-miterlimit="10"/>
<path d="M114.655 53.6674C117.534 53.6674 119.868 51.3333 119.868 48.454C119.868 45.5746 117.534 43.2405 114.655 43.2405C111.776 43.2405 109.441 45.5746 109.441 48.454C109.441 51.3333 111.776 53.6674 114.655 53.6674Z" fill="white" stroke="white" stroke-width="2.09209" stroke-miterlimit="10"/>
<path d="M114.655 22.3824C117.534 22.3824 119.868 20.0483 119.868 17.1689C119.868 14.2896 117.534 11.9554 114.655 11.9554C111.776 11.9554 109.441 14.2896 109.441 17.1689C109.441 20.0483 111.776 22.3824 114.655 22.3824Z" fill="white" stroke="white" stroke-width="2.09209" stroke-miterlimit="10"/>
<path d="M114.655 32.8095C117.534 32.8095 119.868 30.4754 119.868 27.596C119.868 24.7167 117.534 22.3826 114.655 22.3826C111.776 22.3826 109.441 24.7167 109.441 27.596C109.441 30.4754 111.776 32.8095 114.655 32.8095Z" fill="white" stroke="white" stroke-width="2.09209" stroke-miterlimit="10"/>
<path d="M114.655 43.2363C117.534 43.2363 119.868 40.9021 119.868 38.0228C119.868 35.1435 117.534 32.8093 114.655 32.8093C111.776 32.8093 109.441 35.1435 109.441 38.0228C109.441 40.9021 111.776 43.2363 114.655 43.2363Z" fill="white" stroke="white" stroke-width="2.09209" stroke-miterlimit="10"/>
<path d="M137.107 22.3824C139.986 22.3824 142.321 20.0483 142.321 17.1689C142.321 14.2896 139.986 11.9554 137.107 11.9554C134.228 11.9554 131.894 14.2896 131.894 17.1689C131.894 20.0483 134.228 22.3824 137.107 22.3824Z" fill="white" stroke="white" stroke-width="2.09209" stroke-miterlimit="10"/>
<path d="M157.965 84.9527C160.845 84.9527 163.179 82.6186 163.179 79.7392C163.179 76.8599 160.845 74.5258 157.965 74.5258C155.086 74.5258 152.752 76.8599 152.752 79.7392C152.752 82.6186 155.086 84.9527 157.965 84.9527Z" fill="white" stroke="white" stroke-width="2.09209" stroke-miterlimit="10"/>
<path d="M147.538 84.9527C150.418 84.9527 152.752 82.6186 152.752 79.7392C152.752 76.8599 150.418 74.5258 147.538 74.5258C144.659 74.5258 142.325 76.8599 142.325 79.7392C142.325 82.6186 144.659 84.9527 147.538 84.9527Z" fill="white" stroke="white" stroke-width="2.09209" stroke-miterlimit="10"/>
<path d="M137.107 74.5256C139.986 74.5256 142.321 72.1914 142.321 69.3121C142.321 66.4328 139.986 64.0986 137.107 64.0986C134.228 64.0986 131.894 66.4328 131.894 69.3121C131.894 72.1914 134.228 74.5256 137.107 74.5256Z" fill="white" stroke="white" stroke-width="2.09209" stroke-miterlimit="10"/>
<path d="M168.396 84.9527C171.276 84.9527 173.61 82.6186 173.61 79.7392C173.61 76.8599 171.276 74.5258 168.396 74.5258C165.517 74.5258 163.183 76.8599 163.183 79.7392C163.183 82.6186 165.517 84.9527 168.396 84.9527Z" fill="white" stroke="white" stroke-width="2.09209" stroke-miterlimit="10"/>
<path d="M157.965 11.9513C160.845 11.9513 163.179 9.6171 163.179 6.73778C163.179 3.85845 160.845 1.52429 157.965 1.52429C155.086 1.52429 152.752 3.85845 152.752 6.73778C152.752 9.6171 155.086 11.9513 157.965 11.9513Z" fill="white" stroke="white" stroke-width="2.09209" stroke-miterlimit="10"/>
<path d="M147.538 11.9513C150.418 11.9513 152.752 9.6171 152.752 6.73778C152.752 3.85845 150.418 1.52429 147.538 1.52429C144.659 1.52429 142.325 3.85845 142.325 6.73778C142.325 9.6171 144.659 11.9513 147.538 11.9513Z" fill="white" stroke="white" stroke-width="2.09209" stroke-miterlimit="10"/>
<path d="M168.396 11.9513C171.276 11.9513 173.61 9.6171 173.61 6.73778C173.61 3.85845 171.276 1.52429 168.396 1.52429C165.517 1.52429 163.183 3.85845 163.183 6.73778C163.183 9.6171 165.517 11.9513 168.396 11.9513Z" fill="white" stroke="white" stroke-width="2.09209" stroke-miterlimit="10"/>
<path d="M178.823 84.9527C181.703 84.9527 184.037 82.6186 184.037 79.7392C184.037 76.8599 181.703 74.5258 178.823 74.5258C175.944 74.5258 173.61 76.8599 173.61 79.7392C173.61 82.6186 175.944 84.9527 178.823 84.9527Z" fill="white" stroke="white" stroke-width="2.09209" stroke-miterlimit="10"/>
<path d="M178.823 11.9513C181.703 11.9513 184.037 9.6171 184.037 6.73778C184.037 3.85845 181.703 1.52429 178.823 1.52429C175.944 1.52429 173.61 3.85845 173.61 6.73778C173.61 9.6171 175.944 11.9513 178.823 11.9513Z" fill="white" stroke="white" stroke-width="2.09209" stroke-miterlimit="10"/>
<path d="M137.107 32.8095C139.986 32.8095 142.321 30.4754 142.321 27.596C142.321 24.7167 139.986 22.3826 137.107 22.3826C134.228 22.3826 131.894 24.7167 131.894 27.596C131.894 30.4754 134.228 32.8095 137.107 32.8095Z" fill="white" stroke="white" stroke-width="2.09209" stroke-miterlimit="10"/>
<path d="M137.107 43.2363C139.986 43.2363 142.321 40.9021 142.321 38.0228C142.321 35.1435 139.986 32.8093 137.107 32.8093C134.228 32.8093 131.894 35.1435 131.894 38.0228C131.894 40.9021 134.228 43.2363 137.107 43.2363Z" fill="white" stroke="white" stroke-width="2.09209" stroke-miterlimit="10"/>
<path d="M137.107 53.6674C139.986 53.6674 142.321 51.3333 142.321 48.454C142.321 45.5746 139.986 43.2405 137.107 43.2405C134.228 43.2405 131.894 45.5746 131.894 48.454C131.894 51.3333 134.228 53.6674 137.107 53.6674Z" fill="white" stroke="white" stroke-width="2.09209" stroke-miterlimit="10"/>
<path d="M137.107 64.0946C139.986 64.0946 142.321 61.7604 142.321 58.8811C142.321 56.0018 139.986 53.6676 137.107 53.6676C134.228 53.6676 131.894 56.0018 131.894 58.8811C131.894 61.7604 134.228 64.0946 137.107 64.0946Z" fill="white" stroke="white" stroke-width="2.09209" stroke-miterlimit="10"/>
<path d="M189.25 74.5256C192.13 74.5256 194.464 72.1914 194.464 69.3121C194.464 66.4328 192.13 64.0986 189.25 64.0986C186.371 64.0986 184.037 66.4328 184.037 69.3121C184.037 72.1914 186.371 74.5256 189.25 74.5256Z" fill="white" stroke="white" stroke-width="2.09209" stroke-miterlimit="10"/>
<path d="M189.25 64.0946C192.13 64.0946 194.464 61.7604 194.464 58.8811C194.464 56.0018 192.13 53.6676 189.25 53.6676C186.371 53.6676 184.037 56.0018 184.037 58.8811C184.037 61.7604 186.371 64.0946 189.25 64.0946Z" fill="white" stroke="white" stroke-width="2.09209" stroke-miterlimit="10"/>
<path d="M189.25 53.6674C192.13 53.6674 194.464 51.3333 194.464 48.454C194.464 45.5746 192.13 43.2405 189.25 43.2405C186.371 43.2405 184.037 45.5746 184.037 48.454C184.037 51.3333 186.371 53.6674 189.25 53.6674Z" fill="white" stroke="white" stroke-width="2.09209" stroke-miterlimit="10"/>
<path d="M189.25 22.3824C192.13 22.3824 194.464 20.0483 194.464 17.1689C194.464 14.2896 192.13 11.9554 189.25 11.9554C186.371 11.9554 184.037 14.2896 184.037 17.1689C184.037 20.0483 186.371 22.3824 189.25 22.3824Z" fill="white" stroke="white" stroke-width="2.09209" stroke-miterlimit="10"/>
<path d="M189.25 32.8095C192.13 32.8095 194.464 30.4754 194.464 27.596C194.464 24.7167 192.13 22.3826 189.25 22.3826C186.371 22.3826 184.037 24.7167 184.037 27.596C184.037 30.4754 186.371 32.8095 189.25 32.8095Z" fill="white" stroke="white" stroke-width="2.09209" stroke-miterlimit="10"/>
<path d="M189.25 43.2363C192.13 43.2363 194.464 40.9021 194.464 38.0228C194.464 35.1435 192.13 32.8093 189.25 32.8093C186.371 32.8093 184.037 35.1435 184.037 38.0228C184.037 40.9021 186.371 43.2363 189.25 43.2363Z" fill="white" stroke="white" stroke-width="2.09209" stroke-miterlimit="10"/>
<path d="M211.707 22.3824C214.586 22.3824 216.92 20.0483 216.92 17.1689C216.92 14.2896 214.586 11.9554 211.707 11.9554C208.827 11.9554 206.493 14.2896 206.493 17.1689C206.493 20.0483 208.827 22.3824 211.707 22.3824Z" fill="white" stroke="white" stroke-width="2.09209" stroke-miterlimit="10"/>
<path d="M232.565 84.9527C235.444 84.9527 237.778 82.6186 237.778 79.7392C237.778 76.8599 235.444 74.5258 232.565 74.5258C229.686 74.5258 227.351 76.8599 227.351 79.7392C227.351 82.6186 229.686 84.9527 232.565 84.9527Z" fill="white" stroke="white" stroke-width="2.09209" stroke-miterlimit="10"/>
<path d="M222.134 84.9527C225.013 84.9527 227.347 82.6186 227.347 79.7392C227.347 76.8599 225.013 74.5258 222.134 74.5258C219.254 74.5258 216.92 76.8599 216.92 79.7392C216.92 82.6186 219.254 84.9527 222.134 84.9527Z" fill="white" stroke="white" stroke-width="2.09209" stroke-miterlimit="10"/>
<path d="M211.707 74.5256C214.586 74.5256 216.92 72.1914 216.92 69.3121C216.92 66.4328 214.586 64.0986 211.707 64.0986C208.827 64.0986 206.493 66.4328 206.493 69.3121C206.493 72.1914 208.827 74.5256 211.707 74.5256Z" fill="white" stroke="white" stroke-width="2.09209" stroke-miterlimit="10"/>
<path d="M242.992 84.9527C245.871 84.9527 248.205 82.6186 248.205 79.7392C248.205 76.8599 245.871 74.5258 242.992 74.5258C240.112 74.5258 237.778 76.8599 237.778 79.7392C237.778 82.6186 240.112 84.9527 242.992 84.9527Z" fill="white" stroke="white" stroke-width="2.09209" stroke-miterlimit="10"/>
<path d="M232.565 11.9513C235.444 11.9513 237.778 9.6171 237.778 6.73778C237.778 3.85845 235.444 1.52429 232.565 1.52429C229.686 1.52429 227.351 3.85845 227.351 6.73778C227.351 9.6171 229.686 11.9513 232.565 11.9513Z" fill="white" stroke="white" stroke-width="2.09209" stroke-miterlimit="10"/>
<path d="M222.134 11.9513C225.013 11.9513 227.347 9.6171 227.347 6.73778C227.347 3.85845 225.013 1.52429 222.134 1.52429C219.254 1.52429 216.92 3.85845 216.92 6.73778C216.92 9.6171 219.254 11.9513 222.134 11.9513Z" fill="white" stroke="white" stroke-width="2.09209" stroke-miterlimit="10"/>
<path d="M242.992 11.9513C245.871 11.9513 248.205 9.6171 248.205 6.73778C248.205 3.85845 245.871 1.52429 242.992 1.52429C240.112 1.52429 237.778 3.85845 237.778 6.73778C237.778 9.6171 240.112 11.9513 242.992 11.9513Z" fill="white" stroke="white" stroke-width="2.09209" stroke-miterlimit="10"/>
<path d="M253.419 84.9527C256.298 84.9527 258.632 82.6186 258.632 79.7392C258.632 76.8599 256.298 74.5258 253.419 74.5258C250.539 74.5258 248.205 76.8599 248.205 79.7392C248.205 82.6186 250.539 84.9527 253.419 84.9527Z" fill="white" stroke="white" stroke-width="2.09209" stroke-miterlimit="10"/>
<path d="M253.419 11.9513C256.298 11.9513 258.632 9.6171 258.632 6.73778C258.632 3.85845 256.298 1.52429 253.419 1.52429C250.539 1.52429 248.205 3.85845 248.205 6.73778C248.205 9.6171 250.539 11.9513 253.419 11.9513Z" fill="white" stroke="white" stroke-width="2.09209" stroke-miterlimit="10"/>
<path d="M211.707 32.8095C214.586 32.8095 216.92 30.4754 216.92 27.596C216.92 24.7167 214.586 22.3826 211.707 22.3826C208.827 22.3826 206.493 24.7167 206.493 27.596C206.493 30.4754 208.827 32.8095 211.707 32.8095Z" fill="white" stroke="white" stroke-width="2.09209" stroke-miterlimit="10"/>
<path d="M211.707 43.2363C214.586 43.2363 216.92 40.9021 216.92 38.0228C216.92 35.1435 214.586 32.8093 211.707 32.8093C208.827 32.8093 206.493 35.1435 206.493 38.0228C206.493 40.9021 208.827 43.2363 211.707 43.2363Z" fill="white" stroke="white" stroke-width="2.09209" stroke-miterlimit="10"/>
<path d="M211.707 53.6674C214.586 53.6674 216.92 51.3333 216.92 48.454C216.92 45.5746 214.586 43.2405 211.707 43.2405C208.827 43.2405 206.493 45.5746 206.493 48.454C206.493 51.3333 208.827 53.6674 211.707 53.6674Z" fill="white" stroke="white" stroke-width="2.09209" stroke-miterlimit="10"/>
<path d="M211.707 64.0946C214.586 64.0946 216.92 61.7604 216.92 58.8811C216.92 56.0018 214.586 53.6676 211.707 53.6676C208.827 53.6676 206.493 56.0018 206.493 58.8811C206.493 61.7604 208.827 64.0946 211.707 64.0946Z" fill="white" stroke="white" stroke-width="2.09209" stroke-miterlimit="10"/>
<path d="M263.85 74.5256C266.729 74.5256 269.063 72.1914 269.063 69.3121C269.063 66.4328 266.729 64.0986 263.85 64.0986C260.971 64.0986 258.636 66.4328 258.636 69.3121C258.636 72.1914 260.971 74.5256 263.85 74.5256Z" fill="white" stroke="white" stroke-width="2.09209" stroke-miterlimit="10"/>
<path d="M263.85 64.0946C266.729 64.0946 269.063 61.7604 269.063 58.8811C269.063 56.0018 266.729 53.6676 263.85 53.6676C260.971 53.6676 258.636 56.0018 258.636 58.8811C258.636 61.7604 260.971 64.0946 263.85 64.0946Z" fill="white" stroke="white" stroke-width="2.09209" stroke-miterlimit="10"/>
<path d="M263.85 53.6674C266.729 53.6674 269.063 51.3333 269.063 48.454C269.063 45.5746 266.729 43.2405 263.85 43.2405C260.971 43.2405 258.636 45.5746 258.636 48.454C258.636 51.3333 260.971 53.6674 263.85 53.6674Z" fill="white" stroke="white" stroke-width="2.09209" stroke-miterlimit="10"/>
<path d="M263.85 22.3824C266.729 22.3824 269.063 20.0483 269.063 17.1689C269.063 14.2896 266.729 11.9554 263.85 11.9554C260.971 11.9554 258.636 14.2896 258.636 17.1689C258.636 20.0483 260.971 22.3824 263.85 22.3824Z" fill="white" stroke="white" stroke-width="2.09209" stroke-miterlimit="10"/>
<path d="M263.85 32.8095C266.729 32.8095 269.063 30.4754 269.063 27.596C269.063 24.7167 266.729 22.3826 263.85 22.3826C260.971 22.3826 258.636 24.7167 258.636 27.596C258.636 30.4754 260.971 32.8095 263.85 32.8095Z" fill="white" stroke="white" stroke-width="2.09209" stroke-miterlimit="10"/>
<path d="M263.85 43.2363C266.729 43.2363 269.063 40.9021 269.063 38.0228C269.063 35.1435 266.729 32.8093 263.85 32.8093C260.971 32.8093 258.636 35.1435 258.636 38.0228C258.636 40.9021 260.971 43.2363 263.85 43.2363Z" fill="white" stroke="white" stroke-width="2.09209" stroke-miterlimit="10"/>
</g>
<g clip-path="url(#clip1_168_168)">
<path d="M315.5 71.1104C317.949 71.1104 319.934 69.125 319.934 66.6759C319.934 64.2268 317.949 62.2415 315.5 62.2415C313.051 62.2415 311.066 64.2268 311.066 66.6759C311.066 69.125 313.051 71.1104 315.5 71.1104Z" fill="white" stroke="white" stroke-width="1.77947" stroke-miterlimit="10"/>
<path d="M315.5 62.2413C317.949 62.2413 319.934 60.256 319.934 57.8069C319.934 55.3578 317.949 53.3724 315.5 53.3724C313.051 53.3724 311.066 55.3578 311.066 57.8069C311.066 60.256 313.051 62.2413 315.5 62.2413Z" fill="white" stroke="white" stroke-width="1.77947" stroke-miterlimit="10"/>
<path d="M315.5 53.3689C317.949 53.3689 319.934 51.3835 319.934 48.9345C319.934 46.4854 317.949 44.5 315.5 44.5C313.051 44.5 311.066 46.4854 311.066 48.9345C311.066 51.3835 313.051 53.3689 315.5 53.3689Z" fill="white" stroke="white" stroke-width="1.77947" stroke-miterlimit="10"/>
<path d="M315.5 26.7587C317.949 26.7587 319.934 24.7733 319.934 22.3242C319.934 19.8751 317.949 17.8898 315.5 17.8898C313.051 17.8898 311.066 19.8751 311.066 22.3242C311.066 24.7733 313.051 26.7587 315.5 26.7587Z" fill="white" stroke="white" stroke-width="1.77947" stroke-miterlimit="10"/>
<path d="M315.5 35.6311C317.949 35.6311 319.934 33.6457 319.934 31.1967C319.934 28.7476 317.949 26.7622 315.5 26.7622C313.051 26.7622 311.066 28.7476 311.066 31.1967C311.066 33.6457 313.051 35.6311 315.5 35.6311Z" fill="white" stroke="white" stroke-width="1.77947" stroke-miterlimit="10"/>
<path d="M315.5 44.5C317.949 44.5 319.934 42.5146 319.934 40.0656C319.934 37.6165 317.949 35.6311 315.5 35.6311C313.051 35.6311 311.066 37.6165 311.066 40.0656C311.066 42.5146 313.051 44.5 315.5 44.5Z" fill="white" stroke="white" stroke-width="1.77947" stroke-miterlimit="10"/>
<path d="M293.324 48.9345C295.773 48.9345 297.759 46.9491 297.759 44.5C297.759 42.0509 295.773 40.0656 293.324 40.0656C290.875 40.0656 288.89 42.0509 288.89 44.5C288.89 46.9491 290.875 48.9345 293.324 48.9345Z" fill="white" stroke="white" stroke-width="1.77947" stroke-miterlimit="10"/>
<path d="M302.197 48.9345C304.646 48.9345 306.631 46.9491 306.631 44.5C306.631 42.0509 304.646 40.0656 302.197 40.0656C299.748 40.0656 297.762 42.0509 297.762 44.5C297.762 46.9491 299.748 48.9345 302.197 48.9345Z" fill="white" stroke="white" stroke-width="1.77947" stroke-miterlimit="10"/>
<path d="M311.066 48.9345C313.515 48.9345 315.5 46.9491 315.5 44.5C315.5 42.0509 313.515 40.0656 311.066 40.0656C308.616 40.0656 306.631 42.0509 306.631 44.5C306.631 46.9491 308.616 48.9345 311.066 48.9345Z" fill="white" stroke="white" stroke-width="1.77947" stroke-miterlimit="10"/>
<path d="M337.676 48.9345C340.125 48.9345 342.11 46.9491 342.11 44.5C342.11 42.0509 340.125 40.0656 337.676 40.0656C335.227 40.0656 333.241 42.0509 333.241 44.5C333.241 46.9491 335.227 48.9345 337.676 48.9345Z" fill="white" stroke="white" stroke-width="1.77947" stroke-miterlimit="10"/>
<path d="M328.807 48.9345C331.256 48.9345 333.241 46.9491 333.241 44.5C333.241 42.0509 331.256 40.0656 328.807 40.0656C326.358 40.0656 324.372 42.0509 324.372 44.5C324.372 46.9491 326.358 48.9345 328.807 48.9345Z" fill="white" stroke="white" stroke-width="1.77947" stroke-miterlimit="10"/>
<path d="M319.934 48.9345C322.384 48.9345 324.369 46.9491 324.369 44.5C324.369 42.0509 322.384 40.0656 319.934 40.0656C317.485 40.0656 315.5 42.0509 315.5 44.5C315.5 46.9491 317.485 48.9345 319.934 48.9345Z" fill="white" stroke="white" stroke-width="1.77947" stroke-miterlimit="10"/>
</g>
<defs>
<clipPath id="clip0_168_168">
<rect width="270.109" height="86" fill="white"/>
</clipPath>
<clipPath id="clip1_168_168">
<rect width="55" height="55" fill="white" transform="translate(288 17)"/>
</clipPath>
</defs>
</svg>
