<svg width="65" height="86" viewBox="0 0 65 86" fill="none" xmlns="http://www.w3.org/2000/svg">
<g clip-path="url(#clip0_34_1357)">
<path d="M16.7793 74.4231C19.6734 74.4231 22.0195 72.077 22.0195 69.1829C22.0195 66.2888 19.6734 63.9426 16.7793 63.9426C13.8852 63.9426 11.5391 66.2888 11.5391 69.1829C11.5391 72.077 13.8852 74.4231 16.7793 74.4231Z" fill="white" stroke="white" stroke-width="2.10282" stroke-miterlimit="10"/>
<path d="M58.7054 22.0166C61.5996 22.0166 63.9457 19.6705 63.9457 16.7764C63.9457 13.8823 61.5996 11.5361 58.7054 11.5361C55.8113 11.5361 53.4652 13.8823 53.4652 16.7764C53.4652 19.6705 55.8113 22.0166 58.7054 22.0166Z" fill="white" stroke="white" stroke-width="2.10282" stroke-miterlimit="10"/>
<path d="M58.7054 11.5319C61.5996 11.5319 63.9457 9.18574 63.9457 6.29163C63.9457 3.39753 61.5996 1.05139 58.7054 1.05139C55.8113 1.05139 53.4652 3.39753 53.4652 6.29163C53.4652 9.18574 55.8113 11.5319 58.7054 11.5319Z" fill="white" stroke="white" stroke-width="2.10282" stroke-miterlimit="10"/>
<path d="M58.7054 32.4971C61.5996 32.4971 63.9457 30.1509 63.9457 27.2568C63.9457 24.3627 61.5996 22.0166 58.7054 22.0166C55.8113 22.0166 53.4652 24.3627 53.4652 27.2568C53.4652 30.1509 55.8113 32.4971 58.7054 32.4971Z" fill="white" stroke="white" stroke-width="2.10282" stroke-miterlimit="10"/>
<path d="M27.2598 11.5319C30.1539 11.5319 32.5 9.18574 32.5 6.29163C32.5 3.39753 30.1539 1.05139 27.2598 1.05139C24.3657 1.05139 22.0195 3.39753 22.0195 6.29163C22.0195 9.18574 24.3657 11.5319 27.2598 11.5319Z" fill="white" stroke="white" stroke-width="2.10282" stroke-miterlimit="10"/>
<path d="M16.7793 11.5319C19.6734 11.5319 22.0195 9.18574 22.0195 6.29163C22.0195 3.39753 19.6734 1.05139 16.7793 1.05139C13.8852 1.05139 11.5391 3.39753 11.5391 6.29163C11.5391 9.18574 13.8852 11.5319 16.7793 11.5319Z" fill="white" stroke="white" stroke-width="2.10282" stroke-miterlimit="10"/>
<path d="M6.29456 11.5319C9.18867 11.5319 11.5348 9.18574 11.5348 6.29163C11.5348 3.39753 9.18867 1.05139 6.29456 1.05139C3.40046 1.05139 1.05432 3.39753 1.05432 6.29163C1.05432 9.18574 3.40046 11.5319 6.29456 11.5319Z" fill="white" stroke="white" stroke-width="2.10282" stroke-miterlimit="10"/>
<path d="M37.7402 42.9777C40.6343 42.9777 42.9805 40.6315 42.9805 37.7374C42.9805 34.8433 40.6343 32.4972 37.7402 32.4972C34.8461 32.4972 32.5 34.8433 32.5 37.7374C32.5 40.6315 34.8461 42.9777 37.7402 42.9777Z" fill="white" stroke="white" stroke-width="2.10282" stroke-miterlimit="10"/>
<path d="M48.2249 42.9777C51.119 42.9777 53.4651 40.6315 53.4651 37.7374C53.4651 34.8433 51.119 32.4972 48.2249 32.4972C45.3308 32.4972 42.9846 34.8433 42.9846 37.7374C42.9846 40.6315 45.3308 42.9777 48.2249 42.9777Z" fill="white" stroke="white" stroke-width="2.10282" stroke-miterlimit="10"/>
<path d="M27.2598 42.9777C30.1539 42.9777 32.5 40.6315 32.5 37.7374C32.5 34.8433 30.1539 32.4972 27.2598 32.4972C24.3657 32.4972 22.0195 34.8433 22.0195 37.7374C22.0195 40.6315 24.3657 42.9777 27.2598 42.9777Z" fill="white" stroke="white" stroke-width="2.10282" stroke-miterlimit="10"/>
<path d="M16.7793 53.462C19.6734 53.462 22.0195 51.1159 22.0195 48.2218C22.0195 45.3277 19.6734 42.9816 16.7793 42.9816C13.8852 42.9816 11.5391 45.3277 11.5391 48.2218C11.5391 51.1159 13.8852 53.462 16.7793 53.462Z" fill="white" stroke="white" stroke-width="2.10282" stroke-miterlimit="10"/>
<path d="M16.7793 63.9429C19.6734 63.9429 22.0195 61.5967 22.0195 58.7026C22.0195 55.8085 19.6734 53.4624 16.7793 53.4624C13.8852 53.4624 11.5391 55.8085 11.5391 58.7026C11.5391 61.5967 13.8852 63.9429 16.7793 63.9429Z" fill="white" stroke="white" stroke-width="2.10282" stroke-miterlimit="10"/>
<path d="M37.7402 11.5319C40.6343 11.5319 42.9805 9.18574 42.9805 6.29163C42.9805 3.39753 40.6343 1.05139 37.7402 1.05139C34.8461 1.05139 32.5 3.39753 32.5 6.29163C32.5 9.18574 34.8461 11.5319 37.7402 11.5319Z" fill="white" stroke="white" stroke-width="2.10282" stroke-miterlimit="10"/>
<path d="M48.2249 11.5319C51.119 11.5319 53.4651 9.18574 53.4651 6.29163C53.4651 3.39753 51.119 1.05139 48.2249 1.05139C45.3308 1.05139 42.9846 3.39753 42.9846 6.29163C42.9846 9.18574 45.3308 11.5319 48.2249 11.5319Z" fill="white" stroke="white" stroke-width="2.10282" stroke-miterlimit="10"/>
<path d="M16.7793 84.908C19.6734 84.908 22.0195 82.5618 22.0195 79.6677C22.0195 76.7736 19.6734 74.4275 16.7793 74.4275C13.8852 74.4275 11.5391 76.7736 11.5391 79.6677C11.5391 82.5618 13.8852 84.908 16.7793 84.908Z" fill="white" stroke="white" stroke-width="2.10282" stroke-miterlimit="10"/>
</g>
<defs>
<clipPath id="clip0_34_1357">
<rect width="65" height="85.9593" fill="white"/>
</clipPath>
</defs>
</svg>
