<svg width="109" height="86" viewBox="0 0 109 86" fill="none" xmlns="http://www.w3.org/2000/svg">
<g clip-path="url(#clip0_34_1469)">
<path d="M26.5677 22.9436C29.3887 22.9436 31.6755 20.6567 31.6755 17.8358C31.6755 15.0149 29.3887 12.728 26.5677 12.728C23.7468 12.728 21.46 15.0149 21.46 17.8358C21.46 20.6567 23.7468 22.9436 26.5677 22.9436Z" fill="white" stroke="white" stroke-width="2.04967" stroke-miterlimit="10"/>
<path d="M16.3522 22.9436C19.1731 22.9436 21.4599 20.6567 21.4599 17.8358C21.4599 15.0149 19.1731 12.728 16.3522 12.728C13.5312 12.728 11.2444 15.0149 11.2444 17.8358C11.2444 20.6567 13.5312 22.9436 16.3522 22.9436Z" fill="white" stroke="white" stroke-width="2.04967" stroke-miterlimit="10"/>
<path d="M26.5677 33.1593C29.3887 33.1593 31.6755 30.8724 31.6755 28.0515C31.6755 25.2306 29.3887 22.9437 26.5677 22.9437C23.7468 22.9437 21.46 25.2306 21.46 28.0515C21.46 30.8724 23.7468 33.1593 26.5677 33.1593Z" fill="white" stroke="white" stroke-width="2.04967" stroke-miterlimit="10"/>
<path d="M26.5677 43.3786C29.3887 43.3786 31.6755 41.0918 31.6755 38.2709C31.6755 35.4499 29.3887 33.1631 26.5677 33.1631C23.7468 33.1631 21.46 35.4499 21.46 38.2709C21.46 41.0918 23.7468 43.3786 26.5677 43.3786Z" fill="white" stroke="white" stroke-width="2.04967" stroke-miterlimit="10"/>
<path d="M26.5677 53.5942C29.3887 53.5942 31.6755 51.3074 31.6755 48.4864C31.6755 45.6655 29.3887 43.3787 26.5677 43.3787C23.7468 43.3787 21.46 45.6655 21.46 48.4864C21.46 51.3074 23.7468 53.5942 26.5677 53.5942Z" fill="white" stroke="white" stroke-width="2.04967" stroke-miterlimit="10"/>
<path d="M26.5677 63.8097C29.3887 63.8097 31.6755 61.5228 31.6755 58.7019C31.6755 55.8809 29.3887 53.5941 26.5677 53.5941C23.7468 53.5941 21.46 55.8809 21.46 58.7019C21.46 61.5228 23.7468 63.8097 26.5677 63.8097Z" fill="white" stroke="white" stroke-width="2.04967" stroke-miterlimit="10"/>
<path d="M26.5677 74.0295C29.3887 74.0295 31.6755 71.7427 31.6755 68.9217C31.6755 66.1008 29.3887 63.814 26.5677 63.814C23.7468 63.814 21.46 66.1008 21.46 68.9217C21.46 71.7427 23.7468 74.0295 26.5677 74.0295Z" fill="white" stroke="white" stroke-width="2.04967" stroke-miterlimit="10"/>
<path d="M26.5677 12.728C29.3887 12.728 31.6755 10.4412 31.6755 7.62022C31.6755 4.79928 29.3887 2.51245 26.5677 2.51245C23.7468 2.51245 21.46 4.79928 21.46 7.62022C21.46 10.4412 23.7468 12.728 26.5677 12.728Z" fill="white" stroke="white" stroke-width="2.04967" stroke-miterlimit="10"/>
<path d="M6.13255 33.1593C8.9535 33.1593 11.2403 30.8724 11.2403 28.0515C11.2403 25.2306 8.9535 22.9437 6.13255 22.9437C3.31161 22.9437 1.02478 25.2306 1.02478 28.0515C1.02478 30.8724 3.31161 33.1593 6.13255 33.1593Z" fill="white" stroke="white" stroke-width="2.04967" stroke-miterlimit="10"/>
<path d="M26.5677 84.2451C29.3887 84.2451 31.6755 81.9583 31.6755 79.1373C31.6755 76.3164 29.3887 74.0295 26.5677 74.0295C23.7468 74.0295 21.46 76.3164 21.46 79.1373C21.46 81.9583 23.7468 84.2451 26.5677 84.2451Z" fill="white" stroke="white" stroke-width="2.04967" stroke-miterlimit="10"/>
<path d="M102.615 72.5457C105.436 72.5457 107.722 70.2589 107.722 67.438C107.722 64.617 105.436 62.3302 102.615 62.3302C99.7937 62.3302 97.5068 64.617 97.5068 67.438C97.5068 70.2589 99.7937 72.5457 102.615 72.5457Z" fill="white" stroke="white" stroke-width="2.04967" stroke-miterlimit="10"/>
<path d="M102.615 82.7651C105.436 82.7651 107.722 80.4783 107.722 77.6573C107.722 74.8364 105.436 72.5496 102.615 72.5496C99.7937 72.5496 97.5068 74.8364 97.5068 77.6573C97.5068 80.4783 99.7937 82.7651 102.615 82.7651Z" fill="white" stroke="white" stroke-width="2.04967" stroke-miterlimit="10"/>
<path d="M102.615 21.4638C105.436 21.4638 107.722 19.177 107.722 16.3561C107.722 13.5351 105.436 11.2483 102.615 11.2483C99.7937 11.2483 97.5068 13.5351 97.5068 16.3561C97.5068 19.177 99.7937 21.4638 102.615 21.4638Z" fill="white" stroke="white" stroke-width="2.04967" stroke-miterlimit="10"/>
<path d="M102.615 11.2439C105.436 11.2439 107.722 8.95704 107.722 6.13609C107.722 3.31515 105.436 1.02832 102.615 1.02832C99.7937 1.02832 97.5068 3.31515 97.5068 6.13609C97.5068 8.95704 99.7937 11.2439 102.615 11.2439Z" fill="white" stroke="white" stroke-width="2.04967" stroke-miterlimit="10"/>
<path d="M102.615 31.6793C105.436 31.6793 107.722 29.3925 107.722 26.5715C107.722 23.7506 105.436 21.4637 102.615 21.4637C99.7937 21.4637 97.5068 23.7506 97.5068 26.5715C97.5068 29.3925 99.7937 31.6793 102.615 31.6793Z" fill="white" stroke="white" stroke-width="2.04967" stroke-miterlimit="10"/>
<path d="M82.1794 41.8949C85.0004 41.8949 87.2872 39.608 87.2872 36.7871C87.2872 33.9662 85.0004 31.6793 82.1794 31.6793C79.3585 31.6793 77.0717 33.9662 77.0717 36.7871C77.0717 39.608 79.3585 41.8949 82.1794 41.8949Z" fill="white" stroke="white" stroke-width="2.04967" stroke-miterlimit="10"/>
<path d="M92.3949 41.8949C95.2158 41.8949 97.5027 39.608 97.5027 36.7871C97.5027 33.9662 95.2158 31.6793 92.3949 31.6793C89.5739 31.6793 87.2871 33.9662 87.2871 36.7871C87.2871 39.608 89.5739 41.8949 92.3949 41.8949Z" fill="white" stroke="white" stroke-width="2.04967" stroke-miterlimit="10"/>
<path d="M102.615 41.8949C105.436 41.8949 107.722 39.608 107.722 36.7871C107.722 33.9662 105.436 31.6793 102.615 31.6793C99.7937 31.6793 97.5068 33.9662 97.5068 36.7871C97.5068 39.608 99.7937 41.8949 102.615 41.8949Z" fill="white" stroke="white" stroke-width="2.04967" stroke-miterlimit="10"/>
<path d="M61.7442 41.8949C64.5652 41.8949 66.852 39.608 66.852 36.7871C66.852 33.9662 64.5652 31.6793 61.7442 31.6793C58.9233 31.6793 56.6365 33.9662 56.6365 36.7871C56.6365 39.608 58.9233 41.8949 61.7442 41.8949Z" fill="white" stroke="white" stroke-width="2.04967" stroke-miterlimit="10"/>
<path d="M51.5287 11.2439C54.3496 11.2439 56.6364 8.95704 56.6364 6.13609C56.6364 3.31515 54.3496 1.02832 51.5287 1.02832C48.7077 1.02832 46.4209 3.31515 46.4209 6.13609C46.4209 8.95704 48.7077 11.2439 51.5287 11.2439Z" fill="white" stroke="white" stroke-width="2.04967" stroke-miterlimit="10"/>
<path d="M51.5287 21.4638C54.3496 21.4638 56.6364 19.177 56.6364 16.3561C56.6364 13.5351 54.3496 11.2483 51.5287 11.2483C48.7077 11.2483 46.4209 13.5351 46.4209 16.3561C46.4209 19.177 48.7077 21.4638 51.5287 21.4638Z" fill="white" stroke="white" stroke-width="2.04967" stroke-miterlimit="10"/>
<path d="M51.5287 31.6793C54.3496 31.6793 56.6364 29.3925 56.6364 26.5715C56.6364 23.7506 54.3496 21.4637 51.5287 21.4637C48.7077 21.4637 46.4209 23.7506 46.4209 26.5715C46.4209 29.3925 48.7077 31.6793 51.5287 31.6793Z" fill="white" stroke="white" stroke-width="2.04967" stroke-miterlimit="10"/>
<path d="M51.5287 41.8949C54.3496 41.8949 56.6364 39.608 56.6364 36.7871C56.6364 33.9662 54.3496 31.6793 51.5287 31.6793C48.7077 31.6793 46.4209 33.9662 46.4209 36.7871C46.4209 39.608 48.7077 41.8949 51.5287 41.8949Z" fill="white" stroke="white" stroke-width="2.04967" stroke-miterlimit="10"/>
<path d="M71.964 41.8949C74.7849 41.8949 77.0717 39.608 77.0717 36.7871C77.0717 33.9662 74.7849 31.6793 71.964 31.6793C69.143 31.6793 66.8562 33.9662 66.8562 36.7871C66.8562 39.608 69.143 41.8949 71.964 41.8949Z" fill="white" stroke="white" stroke-width="2.04967" stroke-miterlimit="10"/>
<path d="M102.615 62.3302C105.436 62.3302 107.722 60.0433 107.722 57.2224C107.722 54.4015 105.436 52.1146 102.615 52.1146C99.7937 52.1146 97.5068 54.4015 97.5068 57.2224C97.5068 60.0433 99.7937 62.3302 102.615 62.3302Z" fill="white" stroke="white" stroke-width="2.04967" stroke-miterlimit="10"/>
<path d="M102.615 52.1145C105.436 52.1145 107.722 49.8276 107.722 47.0067C107.722 44.1858 105.436 41.8989 102.615 41.8989C99.7937 41.8989 97.5068 44.1858 97.5068 47.0067C97.5068 49.8276 99.7937 52.1145 102.615 52.1145Z" fill="white" stroke="white" stroke-width="2.04967" stroke-miterlimit="10"/>
</g>
<defs>
<clipPath id="clip0_34_1469">
<rect width="108.747" height="85.2732" fill="white"/>
</clipPath>
</defs>
</svg>
