<svg width="136" height="87" viewBox="0 0 136 87" fill="none" xmlns="http://www.w3.org/2000/svg">
<g clip-path="url(#clip0_341_249)">
<path d="M16.7793 74.6123C19.6734 74.6123 22.0195 72.2662 22.0195 69.3721C22.0195 66.478 19.6734 64.1318 16.7793 64.1318C13.8852 64.1318 11.5391 66.478 11.5391 69.3721C11.5391 72.2662 13.8852 74.6123 16.7793 74.6123Z" fill="white" stroke="white" stroke-width="2.10282" stroke-miterlimit="10"/>
<path d="M58.7051 22.2061C61.5992 22.2061 63.9453 19.8599 63.9453 16.9658C63.9453 14.0717 61.5992 11.7256 58.7051 11.7256C55.811 11.7256 53.4648 14.0717 53.4648 16.9658C53.4648 19.8599 55.811 22.2061 58.7051 22.2061Z" fill="white" stroke="white" stroke-width="2.10282" stroke-miterlimit="10"/>
<path d="M58.7051 11.7217C61.5992 11.7217 63.9453 9.37556 63.9453 6.48145C63.9453 3.58735 61.5992 1.24121 58.7051 1.24121C55.811 1.24121 53.4648 3.58735 53.4648 6.48145C53.4648 9.37556 55.811 11.7217 58.7051 11.7217Z" fill="white" stroke="white" stroke-width="2.10282" stroke-miterlimit="10"/>
<path d="M58.7051 32.6865C61.5992 32.6865 63.9453 30.3404 63.9453 27.4463C63.9453 24.5522 61.5992 22.2061 58.7051 22.2061C55.811 22.2061 53.4648 24.5522 53.4648 27.4463C53.4648 30.3404 55.811 32.6865 58.7051 32.6865Z" fill="white" stroke="white" stroke-width="2.10282" stroke-miterlimit="10"/>
<path d="M27.2598 11.7217C30.1539 11.7217 32.5 9.37556 32.5 6.48145C32.5 3.58735 30.1539 1.24121 27.2598 1.24121C24.3657 1.24121 22.0195 3.58735 22.0195 6.48145C22.0195 9.37556 24.3657 11.7217 27.2598 11.7217Z" fill="white" stroke="white" stroke-width="2.10282" stroke-miterlimit="10"/>
<path d="M16.7793 11.7217C19.6734 11.7217 22.0195 9.37556 22.0195 6.48145C22.0195 3.58735 19.6734 1.24121 16.7793 1.24121C13.8852 1.24121 11.5391 3.58735 11.5391 6.48145C11.5391 9.37556 13.8852 11.7217 16.7793 11.7217Z" fill="white" stroke="white" stroke-width="2.10282" stroke-miterlimit="10"/>
<path d="M6.29493 11.7217C9.18903 11.7217 11.5352 9.37556 11.5352 6.48145C11.5352 3.58735 9.18903 1.24121 6.29493 1.24121C3.40082 1.24121 1.05469 3.58735 1.05469 6.48145C1.05469 9.37556 3.40082 11.7217 6.29493 11.7217Z" fill="white" stroke="white" stroke-width="2.10282" stroke-miterlimit="10"/>
<path d="M37.7402 43.167C40.6343 43.167 42.9805 40.8209 42.9805 37.9268C42.9805 35.0327 40.6343 32.6865 37.7402 32.6865C34.8461 32.6865 32.5 35.0327 32.5 37.9268C32.5 40.8209 34.8461 43.167 37.7402 43.167Z" fill="white" stroke="white" stroke-width="2.10282" stroke-miterlimit="10"/>
<path d="M48.2246 43.167C51.1187 43.167 53.4649 40.8209 53.4649 37.9268C53.4649 35.0327 51.1187 32.6865 48.2246 32.6865C45.3305 32.6865 42.9844 35.0327 42.9844 37.9268C42.9844 40.8209 45.3305 43.167 48.2246 43.167Z" fill="white" stroke="white" stroke-width="2.10282" stroke-miterlimit="10"/>
<path d="M27.2598 43.167C30.1539 43.167 32.5 40.8209 32.5 37.9268C32.5 35.0327 30.1539 32.6865 27.2598 32.6865C24.3657 32.6865 22.0195 35.0327 22.0195 37.9268C22.0195 40.8209 24.3657 43.167 27.2598 43.167Z" fill="white" stroke="white" stroke-width="2.10282" stroke-miterlimit="10"/>
<path d="M16.7793 53.6514C19.6734 53.6514 22.0195 51.3052 22.0195 48.4111C22.0195 45.517 19.6734 43.1709 16.7793 43.1709C13.8852 43.1709 11.5391 45.517 11.5391 48.4111C11.5391 51.3052 13.8852 53.6514 16.7793 53.6514Z" fill="white" stroke="white" stroke-width="2.10282" stroke-miterlimit="10"/>
<path d="M16.7793 64.1318C19.6734 64.1318 22.0195 61.7857 22.0195 58.8916C22.0195 55.9975 19.6734 53.6514 16.7793 53.6514C13.8852 53.6514 11.5391 55.9975 11.5391 58.8916C11.5391 61.7857 13.8852 64.1318 16.7793 64.1318Z" fill="white" stroke="white" stroke-width="2.10282" stroke-miterlimit="10"/>
<path d="M37.7402 11.7217C40.6343 11.7217 42.9805 9.37556 42.9805 6.48145C42.9805 3.58735 40.6343 1.24121 37.7402 1.24121C34.8461 1.24121 32.5 3.58735 32.5 6.48145C32.5 9.37556 34.8461 11.7217 37.7402 11.7217Z" fill="white" stroke="white" stroke-width="2.10282" stroke-miterlimit="10"/>
<path d="M48.2246 11.7217C51.1187 11.7217 53.4649 9.37556 53.4649 6.48145C53.4649 3.58735 51.1187 1.24121 48.2246 1.24121C45.3305 1.24121 42.9844 3.58735 42.9844 6.48145C42.9844 9.37556 45.3305 11.7217 48.2246 11.7217Z" fill="white" stroke="white" stroke-width="2.10282" stroke-miterlimit="10"/>
<path d="M16.7793 85.0977C19.6734 85.0977 22.0195 82.7515 22.0195 79.8574C22.0195 76.9633 19.6734 74.6172 16.7793 74.6172C13.8852 74.6172 11.5391 76.9633 11.5391 79.8574C11.5391 82.7515 13.8852 85.0977 16.7793 85.0977Z" fill="white" stroke="white" stroke-width="2.10282" stroke-miterlimit="10"/>
</g>
<g clip-path="url(#clip1_341_249)">
<path d="M108.499 72.1101C110.948 72.1101 112.933 70.1247 112.933 67.6757C112.933 65.2266 110.948 63.2412 108.499 63.2412C106.05 63.2412 104.064 65.2266 104.064 67.6757C104.064 70.1247 106.05 72.1101 108.499 72.1101Z" fill="white" stroke="white" stroke-width="1.77947" stroke-miterlimit="10"/>
<path d="M108.499 63.241C110.948 63.241 112.933 61.2556 112.933 58.8065C112.933 56.3574 110.948 54.3721 108.499 54.3721C106.05 54.3721 104.064 56.3574 104.064 58.8065C104.064 61.2556 106.05 63.241 108.499 63.241Z" fill="white" stroke="white" stroke-width="1.77947" stroke-miterlimit="10"/>
<path d="M108.499 54.3689C110.948 54.3689 112.933 52.3835 112.933 49.9345C112.933 47.4854 110.948 45.5 108.499 45.5C106.05 45.5 104.064 47.4854 104.064 49.9345C104.064 52.3835 106.05 54.3689 108.499 54.3689Z" fill="white" stroke="white" stroke-width="1.77947" stroke-miterlimit="10"/>
<path d="M108.499 27.7585C110.948 27.7585 112.933 25.7732 112.933 23.3241C112.933 20.875 110.948 18.8896 108.499 18.8896C106.05 18.8896 104.064 20.875 104.064 23.3241C104.064 25.7732 106.05 27.7585 108.499 27.7585Z" fill="white" stroke="white" stroke-width="1.77947" stroke-miterlimit="10"/>
<path d="M108.499 36.6316C110.948 36.6316 112.933 34.6462 112.933 32.1971C112.933 29.7481 110.948 27.7627 108.499 27.7627C106.05 27.7627 104.064 29.7481 104.064 32.1971C104.064 34.6462 106.05 36.6316 108.499 36.6316Z" fill="white" stroke="white" stroke-width="1.77947" stroke-miterlimit="10"/>
<path d="M108.499 45.4998C110.948 45.4998 112.933 43.5144 112.933 41.0653C112.933 38.6162 110.948 36.6309 108.499 36.6309C106.05 36.6309 104.064 38.6162 104.064 41.0653C104.064 43.5144 106.05 45.4998 108.499 45.4998Z" fill="white" stroke="white" stroke-width="1.77947" stroke-miterlimit="10"/>
<path d="M86.3231 49.9343C88.7722 49.9343 90.7576 47.949 90.7576 45.4999C90.7576 43.0508 88.7722 41.0654 86.3231 41.0654C83.874 41.0654 81.8887 43.0508 81.8887 45.4999C81.8887 47.949 83.874 49.9343 86.3231 49.9343Z" fill="white" stroke="white" stroke-width="1.77947" stroke-miterlimit="10"/>
<path d="M95.1952 49.9343C97.6443 49.9343 99.6296 47.949 99.6296 45.4999C99.6296 43.0508 97.6443 41.0654 95.1952 41.0654C92.7461 41.0654 90.7607 43.0508 90.7607 45.4999C90.7607 47.949 92.7461 49.9343 95.1952 49.9343Z" fill="white" stroke="white" stroke-width="1.77947" stroke-miterlimit="10"/>
<path d="M104.064 49.9343C106.513 49.9343 108.499 47.949 108.499 45.4999C108.499 43.0508 106.513 41.0654 104.064 41.0654C101.615 41.0654 99.6299 43.0508 99.6299 45.4999C99.6299 47.949 101.615 49.9343 104.064 49.9343Z" fill="white" stroke="white" stroke-width="1.77947" stroke-miterlimit="10"/>
<path d="M130.675 49.9343C133.124 49.9343 135.109 47.949 135.109 45.4999C135.109 43.0508 133.124 41.0654 130.675 41.0654C128.226 41.0654 126.24 43.0508 126.24 45.4999C126.24 47.949 128.226 49.9343 130.675 49.9343Z" fill="white" stroke="white" stroke-width="1.77947" stroke-miterlimit="10"/>
<path d="M121.806 49.9343C124.255 49.9343 126.24 47.949 126.24 45.4999C126.24 43.0508 124.255 41.0654 121.806 41.0654C119.356 41.0654 117.371 43.0508 117.371 45.4999C117.371 47.949 119.356 49.9343 121.806 49.9343Z" fill="white" stroke="white" stroke-width="1.77947" stroke-miterlimit="10"/>
<path d="M112.933 49.9343C115.383 49.9343 117.368 47.949 117.368 45.4999C117.368 43.0508 115.383 41.0654 112.933 41.0654C110.484 41.0654 108.499 43.0508 108.499 45.4999C108.499 47.949 110.484 49.9343 112.933 49.9343Z" fill="white" stroke="white" stroke-width="1.77947" stroke-miterlimit="10"/>
</g>
<defs>
<clipPath id="clip0_341_249">
<rect width="65" height="85.9593" fill="white" transform="translate(0 0.189453)"/>
</clipPath>
<clipPath id="clip1_341_249">
<rect width="55" height="55" fill="white" transform="translate(80.999 18)"/>
</clipPath>
</defs>
</svg>
