<svg width="142" height="86" viewBox="0 0 142 86" fill="none" xmlns="http://www.w3.org/2000/svg">
<g clip-path="url(#clip0_34_1401)">
<path d="M58.6199 74.3143C61.5098 74.3143 63.8524 71.9715 63.8524 69.0817C63.8524 66.1918 61.5098 63.8491 58.6199 63.8491C55.73 63.8491 53.3873 66.1918 53.3873 69.0817C53.3873 71.9715 55.73 74.3143 58.6199 74.3143Z" fill="white" stroke="white" stroke-width="2.61729" stroke-miterlimit="10"/>
<path d="M58.6199 21.9844C61.5098 21.9844 63.8524 19.6417 63.8524 16.7518C63.8524 13.862 61.5098 11.5193 58.6199 11.5193C55.73 11.5193 53.3873 13.862 53.3873 16.7518C53.3873 19.6417 55.73 21.9844 58.6199 21.9844Z" fill="white" stroke="white" stroke-width="2.61729" stroke-miterlimit="10"/>
<path d="M58.6199 32.4495C61.5098 32.4495 63.8524 30.1068 63.8524 27.2169C63.8524 24.3271 61.5098 21.9844 58.6199 21.9844C55.73 21.9844 53.3873 24.3271 53.3873 27.2169C53.3873 30.1068 55.73 32.4495 58.6199 32.4495Z" fill="white" stroke="white" stroke-width="2.61729" stroke-miterlimit="10"/>
<path d="M16.7553 84.7835C19.6451 84.7835 21.9878 82.4408 21.9878 79.5509C21.9878 76.6611 19.6451 74.3184 16.7553 74.3184C13.8654 74.3184 11.5227 76.6611 11.5227 79.5509C11.5227 82.4408 13.8654 84.7835 16.7553 84.7835Z" fill="white" stroke="white" stroke-width="2.61729" stroke-miterlimit="10"/>
<path d="M27.2204 84.7835C30.1102 84.7835 32.4529 82.4408 32.4529 79.5509C32.4529 76.6611 30.1102 74.3184 27.2204 74.3184C24.3305 74.3184 21.9878 76.6611 21.9878 79.5509C21.9878 82.4408 24.3305 84.7835 27.2204 84.7835Z" fill="white" stroke="white" stroke-width="2.61729" stroke-miterlimit="10"/>
<path d="M27.2204 11.5151C30.1102 11.5151 32.4529 9.17235 32.4529 6.28249C32.4529 3.39262 30.1102 1.04993 27.2204 1.04993C24.3305 1.04993 21.9878 3.39262 21.9878 6.28249C21.9878 9.17235 24.3305 11.5151 27.2204 11.5151Z" fill="white" stroke="white" stroke-width="2.61729" stroke-miterlimit="10"/>
<path d="M16.7553 11.5151C19.6451 11.5151 21.9878 9.17235 21.9878 6.28249C21.9878 3.39262 19.6451 1.04993 16.7553 1.04993C13.8654 1.04993 11.5227 3.39262 11.5227 6.28249C11.5227 9.17235 13.8654 11.5151 16.7553 11.5151Z" fill="white" stroke="white" stroke-width="2.61729" stroke-miterlimit="10"/>
<path d="M6.28591 21.9844C9.17577 21.9844 11.5185 19.6417 11.5185 16.7518C11.5185 13.862 9.17577 11.5193 6.28591 11.5193C3.39604 11.5193 1.05334 13.862 1.05334 16.7518C1.05334 19.6417 3.39604 21.9844 6.28591 21.9844Z" fill="white" stroke="white" stroke-width="2.61729" stroke-miterlimit="10"/>
<path d="M37.6854 42.9146C40.5753 42.9146 42.918 40.5719 42.918 37.682C42.918 34.7922 40.5753 32.4495 37.6854 32.4495C34.7956 32.4495 32.4529 34.7922 32.4529 37.682C32.4529 40.5719 34.7956 42.9146 37.6854 42.9146Z" fill="white" stroke="white" stroke-width="2.61729" stroke-miterlimit="10"/>
<path d="M48.1548 42.9146C51.0447 42.9146 53.3874 40.5719 53.3874 37.682C53.3874 34.7922 51.0447 32.4495 48.1548 32.4495C45.2649 32.4495 42.9222 34.7922 42.9222 37.682C42.9222 40.5719 45.2649 42.9146 48.1548 42.9146Z" fill="white" stroke="white" stroke-width="2.61729" stroke-miterlimit="10"/>
<path d="M27.2204 42.9146C30.1102 42.9146 32.4529 40.5719 32.4529 37.682C32.4529 34.7922 30.1102 32.4495 27.2204 32.4495C24.3305 32.4495 21.9878 34.7922 21.9878 37.682C21.9878 40.5719 24.3305 42.9146 27.2204 42.9146Z" fill="white" stroke="white" stroke-width="2.61729" stroke-miterlimit="10"/>
<path d="M58.6199 63.8492C61.5098 63.8492 63.8524 61.5065 63.8524 58.6166C63.8524 55.7267 61.5098 53.384 58.6199 53.384C55.73 53.384 53.3873 55.7267 53.3873 58.6166C53.3873 61.5065 55.73 63.8492 58.6199 63.8492Z" fill="white" stroke="white" stroke-width="2.61729" stroke-miterlimit="10"/>
<path d="M58.6199 53.3839C61.5098 53.3839 63.8524 51.0413 63.8524 48.1514C63.8524 45.2615 61.5098 42.9188 58.6199 42.9188C55.73 42.9188 53.3873 45.2615 53.3873 48.1514C53.3873 51.0413 55.73 53.3839 58.6199 53.3839Z" fill="white" stroke="white" stroke-width="2.61729" stroke-miterlimit="10"/>
<path d="M37.6854 11.5151C40.5753 11.5151 42.918 9.17235 42.918 6.28249C42.918 3.39262 40.5753 1.04993 37.6854 1.04993C34.7956 1.04993 32.4529 3.39262 32.4529 6.28249C32.4529 9.17235 34.7956 11.5151 37.6854 11.5151Z" fill="white" stroke="white" stroke-width="2.61729" stroke-miterlimit="10"/>
<path d="M48.1548 11.5151C51.0447 11.5151 53.3874 9.17235 53.3874 6.28249C53.3874 3.39262 51.0447 1.04993 48.1548 1.04993C45.2649 1.04993 42.9222 3.39262 42.9222 6.28249C42.9222 9.17235 45.2649 11.5151 48.1548 11.5151Z" fill="white" stroke="white" stroke-width="2.61729" stroke-miterlimit="10"/>
<path d="M6.28591 74.3143C9.17577 74.3143 11.5185 71.9715 11.5185 69.0817C11.5185 66.1918 9.17577 63.8491 6.28591 63.8491C3.39604 63.8491 1.05334 66.1918 1.05334 69.0817C1.05334 71.9715 3.39604 74.3143 6.28591 74.3143Z" fill="white" stroke="white" stroke-width="2.61729" stroke-miterlimit="10"/>
<path d="M37.6854 84.7835C40.5753 84.7835 42.918 82.4408 42.918 79.5509C42.918 76.6611 40.5753 74.3184 37.6854 74.3184C34.7956 74.3184 32.4529 76.6611 32.4529 79.5509C32.4529 82.4408 34.7956 84.7835 37.6854 84.7835Z" fill="white" stroke="white" stroke-width="2.61729" stroke-miterlimit="10"/>
<path d="M48.1548 84.7835C51.0447 84.7835 53.3874 82.4408 53.3874 79.5509C53.3874 76.6611 51.0447 74.3184 48.1548 74.3184C45.2649 74.3184 42.9222 76.6611 42.9222 79.5509C42.9222 82.4408 45.2649 84.7835 48.1548 84.7835Z" fill="white" stroke="white" stroke-width="2.61729" stroke-miterlimit="10"/>
<path d="M83.3801 21.9844C86.27 21.9844 88.6127 19.6417 88.6127 16.7518C88.6127 13.862 86.27 11.5193 83.3801 11.5193C80.4903 11.5193 78.1476 13.862 78.1476 16.7518C78.1476 19.6417 80.4903 21.9844 83.3801 21.9844Z" fill="white" stroke="white" stroke-width="2.61729" stroke-miterlimit="10"/>
<path d="M104.315 84.7835C107.204 84.7835 109.547 82.4408 109.547 79.5509C109.547 76.6611 107.204 74.3184 104.315 74.3184C101.425 74.3184 99.082 76.6611 99.082 79.5509C99.082 82.4408 101.425 84.7835 104.315 84.7835Z" fill="white" stroke="white" stroke-width="2.61729" stroke-miterlimit="10"/>
<path d="M93.8452 84.7835C96.7351 84.7835 99.0778 82.4408 99.0778 79.5509C99.0778 76.6611 96.7351 74.3184 93.8452 74.3184C90.9554 74.3184 88.6127 76.6611 88.6127 79.5509C88.6127 82.4408 90.9554 84.7835 93.8452 84.7835Z" fill="white" stroke="white" stroke-width="2.61729" stroke-miterlimit="10"/>
<path d="M83.3801 74.3143C86.27 74.3143 88.6127 71.9715 88.6127 69.0817C88.6127 66.1918 86.27 63.8491 83.3801 63.8491C80.4903 63.8491 78.1476 66.1918 78.1476 69.0817C78.1476 71.9715 80.4903 74.3143 83.3801 74.3143Z" fill="white" stroke="white" stroke-width="2.61729" stroke-miterlimit="10"/>
<path d="M114.78 84.7835C117.67 84.7835 120.012 82.4408 120.012 79.5509C120.012 76.6611 117.67 74.3184 114.78 74.3184C111.89 74.3184 109.547 76.6611 109.547 79.5509C109.547 82.4408 111.89 84.7835 114.78 84.7835Z" fill="white" stroke="white" stroke-width="2.61729" stroke-miterlimit="10"/>
<path d="M104.315 11.5151C107.204 11.5151 109.547 9.17235 109.547 6.28249C109.547 3.39262 107.204 1.04993 104.315 1.04993C101.425 1.04993 99.082 3.39262 99.082 6.28249C99.082 9.17235 101.425 11.5151 104.315 11.5151Z" fill="white" stroke="white" stroke-width="2.61729" stroke-miterlimit="10"/>
<path d="M93.8452 11.5151C96.7351 11.5151 99.0778 9.17235 99.0778 6.28249C99.0778 3.39262 96.7351 1.04993 93.8452 1.04993C90.9554 1.04993 88.6127 3.39262 88.6127 6.28249C88.6127 9.17235 90.9554 11.5151 93.8452 11.5151Z" fill="white" stroke="white" stroke-width="2.61729" stroke-miterlimit="10"/>
<path d="M114.78 11.5151C117.67 11.5151 120.012 9.17235 120.012 6.28249C120.012 3.39262 117.67 1.04993 114.78 1.04993C111.89 1.04993 109.547 3.39262 109.547 6.28249C109.547 9.17235 111.89 11.5151 114.78 11.5151Z" fill="white" stroke="white" stroke-width="2.61729" stroke-miterlimit="10"/>
<path d="M125.249 84.7835C128.139 84.7835 130.482 82.4408 130.482 79.5509C130.482 76.6611 128.139 74.3184 125.249 74.3184C122.359 74.3184 120.016 76.6611 120.016 79.5509C120.016 82.4408 122.359 84.7835 125.249 84.7835Z" fill="white" stroke="white" stroke-width="2.61729" stroke-miterlimit="10"/>
<path d="M125.249 11.5151C128.139 11.5151 130.482 9.17235 130.482 6.28249C130.482 3.39262 128.139 1.04993 125.249 1.04993C122.359 1.04993 120.016 3.39262 120.016 6.28249C120.016 9.17235 122.359 11.5151 125.249 11.5151Z" fill="white" stroke="white" stroke-width="2.61729" stroke-miterlimit="10"/>
<path d="M83.3801 32.4495C86.27 32.4495 88.6127 30.1068 88.6127 27.2169C88.6127 24.3271 86.27 21.9844 83.3801 21.9844C80.4903 21.9844 78.1476 24.3271 78.1476 27.2169C78.1476 30.1068 80.4903 32.4495 83.3801 32.4495Z" fill="white" stroke="white" stroke-width="2.61729" stroke-miterlimit="10"/>
<path d="M83.3801 42.9146C86.27 42.9146 88.6127 40.5719 88.6127 37.682C88.6127 34.7922 86.27 32.4495 83.3801 32.4495C80.4903 32.4495 78.1476 34.7922 78.1476 37.682C78.1476 40.5719 80.4903 42.9146 83.3801 42.9146Z" fill="white" stroke="white" stroke-width="2.61729" stroke-miterlimit="10"/>
<path d="M83.3801 53.3839C86.27 53.3839 88.6127 51.0413 88.6127 48.1514C88.6127 45.2615 86.27 42.9188 83.3801 42.9188C80.4903 42.9188 78.1476 45.2615 78.1476 48.1514C78.1476 51.0413 80.4903 53.3839 83.3801 53.3839Z" fill="white" stroke="white" stroke-width="2.61729" stroke-miterlimit="10"/>
<path d="M83.3801 63.8492C86.27 63.8492 88.6127 61.5065 88.6127 58.6166C88.6127 55.7267 86.27 53.384 83.3801 53.384C80.4903 53.384 78.1476 55.7267 78.1476 58.6166C78.1476 61.5065 80.4903 63.8492 83.3801 63.8492Z" fill="white" stroke="white" stroke-width="2.61729" stroke-miterlimit="10"/>
<path d="M135.714 74.3143C138.604 74.3143 140.947 71.9715 140.947 69.0817C140.947 66.1918 138.604 63.8491 135.714 63.8491C132.824 63.8491 130.482 66.1918 130.482 69.0817C130.482 71.9715 132.824 74.3143 135.714 74.3143Z" fill="white" stroke="white" stroke-width="2.61729" stroke-miterlimit="10"/>
<path d="M135.714 63.8492C138.604 63.8492 140.947 61.5065 140.947 58.6166C140.947 55.7267 138.604 53.384 135.714 53.384C132.824 53.384 130.482 55.7267 130.482 58.6166C130.482 61.5065 132.824 63.8492 135.714 63.8492Z" fill="white" stroke="white" stroke-width="2.61729" stroke-miterlimit="10"/>
<path d="M135.714 53.3839C138.604 53.3839 140.947 51.0413 140.947 48.1514C140.947 45.2615 138.604 42.9188 135.714 42.9188C132.824 42.9188 130.482 45.2615 130.482 48.1514C130.482 51.0413 132.824 53.3839 135.714 53.3839Z" fill="white" stroke="white" stroke-width="2.61729" stroke-miterlimit="10"/>
<path d="M135.714 21.9844C138.604 21.9844 140.947 19.6417 140.947 16.7518C140.947 13.862 138.604 11.5193 135.714 11.5193C132.824 11.5193 130.482 13.862 130.482 16.7518C130.482 19.6417 132.824 21.9844 135.714 21.9844Z" fill="white" stroke="white" stroke-width="2.61729" stroke-miterlimit="10"/>
<path d="M135.714 32.4495C138.604 32.4495 140.947 30.1068 140.947 27.2169C140.947 24.3271 138.604 21.9844 135.714 21.9844C132.824 21.9844 130.482 24.3271 130.482 27.2169C130.482 30.1068 132.824 32.4495 135.714 32.4495Z" fill="white" stroke="white" stroke-width="2.61729" stroke-miterlimit="10"/>
<path d="M135.714 42.9146C138.604 42.9146 140.947 40.5719 140.947 37.682C140.947 34.7922 138.604 32.4495 135.714 32.4495C132.824 32.4495 130.482 34.7922 130.482 37.682C130.482 40.5719 132.824 42.9146 135.714 42.9146Z" fill="white" stroke="white" stroke-width="2.61729" stroke-miterlimit="10"/>
</g>
<defs>
<clipPath id="clip0_34_1401">
<rect width="142" height="85.8333" fill="white"/>
</clipPath>
</defs>
</svg>
