<svg width="40" height="68" viewBox="0 0 40 68" fill="none" xmlns="http://www.w3.org/2000/svg">
<g clip-path="url(#clip0_34_1586)">
<path d="M5.94196 19.6665C8.52167 19.6846 10.6276 17.608 10.6457 15.0283C10.6637 12.4486 8.58711 10.3427 6.0074 10.3246C3.42769 10.3065 1.32178 12.3831 1.30371 14.9628C1.28564 17.5425 3.36225 19.6485 5.94196 19.6665Z" fill="#F7C592" stroke="#F7C592" stroke-width="1.87443" stroke-miterlimit="10"/>
<path d="M5.87653 29.0085C8.45624 29.0265 10.5622 26.9499 10.5802 24.3702C10.5983 21.7905 8.52168 19.6846 5.94197 19.6665C3.36226 19.6484 1.25635 21.7251 1.23828 24.3048C1.22021 26.8845 3.29682 28.9904 5.87653 29.0085Z" fill="#F7C592" stroke="#F7C592" stroke-width="1.87443" stroke-miterlimit="10"/>
<path d="M5.74567 47.6961C8.32538 47.7141 10.4313 45.6375 10.4494 43.0578C10.4674 40.4781 8.39082 38.3722 5.81111 38.3541C3.2314 38.3361 1.12549 40.4127 1.10742 42.9924C1.08935 45.5721 3.16597 47.678 5.74567 47.6961Z" fill="#F7C592" stroke="#F7C592" stroke-width="1.87443" stroke-miterlimit="10"/>
<path d="M5.68024 57.038C8.25995 57.0561 10.3659 54.9794 10.3839 52.3997C10.402 49.82 8.32539 47.7141 5.74568 47.696C3.16597 47.678 1.06006 49.7546 1.04199 52.3343C1.02392 54.914 3.10054 57.0199 5.68024 57.038Z" fill="#F7C592" stroke="#F7C592" stroke-width="1.87443" stroke-miterlimit="10"/>
<path d="M15.3531 10.3863C17.9328 10.4043 20.0387 8.32771 20.0568 5.74801C20.0749 3.1683 17.9982 1.06239 15.4185 1.04432C12.8388 1.02625 10.7329 3.10286 10.7148 5.68257C10.6968 8.26228 12.7734 10.3682 15.3531 10.3863Z" fill="#F7C592" stroke="#F7C592" stroke-width="1.87443" stroke-miterlimit="10"/>
<path d="M24.6951 10.4517C27.2748 10.4698 29.3808 8.39314 29.3988 5.81344C29.4169 3.23373 27.3403 1.12781 24.7606 1.10974C22.1809 1.09167 20.075 3.16829 20.0569 5.748C20.0388 8.32771 22.1154 10.4336 24.6951 10.4517Z" fill="#F7C592" stroke="#F7C592" stroke-width="1.87443" stroke-miterlimit="10"/>
<path d="M15.2877 19.732C17.8674 19.75 19.9733 17.6734 19.9914 15.0937C20.0094 12.514 17.9328 10.4081 15.3531 10.39C12.7734 10.3719 10.6675 12.4486 10.6494 15.0283C10.6313 17.608 12.708 19.7139 15.2877 19.732Z" fill="#F7C592" stroke="#F7C592" stroke-width="1.87443" stroke-miterlimit="10"/>
<path d="M24.6296 19.7974C27.2093 19.8155 29.3152 17.7388 29.3333 15.1591C29.3513 12.5794 27.2747 10.4735 24.695 10.4554C22.1153 10.4374 20.0094 12.514 19.9913 15.0937C19.9733 17.6734 22.0499 19.7793 24.6296 19.7974Z" fill="#F7C592" stroke="#F7C592" stroke-width="1.87443" stroke-miterlimit="10"/>
<path d="M33.9716 19.8628C36.5513 19.8809 38.6572 17.8043 38.6753 15.2246C38.6934 12.6449 36.6168 10.5389 34.0371 10.5209C31.4574 10.5028 29.3514 12.5794 29.3334 15.1591C29.3153 17.7388 31.3919 19.8448 33.9716 19.8628Z" fill="#F7C592" stroke="#F7C592" stroke-width="1.87443" stroke-miterlimit="10"/>
<path d="M15.2222 29.0739C17.8019 29.092 19.9079 27.0153 19.9259 24.4356C19.944 21.8559 17.8674 19.75 15.2877 19.7319C12.708 19.7139 10.6021 21.7905 10.584 24.3702C10.5659 26.9499 12.6425 29.0558 15.2222 29.0739Z" fill="#F7C592" stroke="#F7C592" stroke-width="1.87443" stroke-miterlimit="10"/>
<path d="M24.5642 29.1393C27.1439 29.1574 29.2498 27.0808 29.2678 24.5011C29.2859 21.9214 27.2093 19.8154 24.6296 19.7974C22.0499 19.7793 19.944 21.8559 19.9259 24.4356C19.9078 27.0153 21.9844 29.1212 24.5642 29.1393Z" fill="#F7C592" stroke="#F7C592" stroke-width="1.87443" stroke-miterlimit="10"/>
<path d="M33.9062 29.2047C36.4859 29.2228 38.5918 27.1462 38.6099 24.5665C38.628 21.9868 36.5513 19.8809 33.9716 19.8628C31.3919 19.8447 29.286 21.9213 29.2679 24.5011C29.2499 27.0808 31.3265 29.1867 33.9062 29.2047Z" fill="#F7C592" stroke="#F7C592" stroke-width="1.87443" stroke-miterlimit="10"/>
<path d="M15.1568 38.4158C17.7365 38.4339 19.8424 36.3573 19.8605 33.7776C19.8786 31.1978 17.8019 29.0919 15.2222 29.0739C12.6425 29.0558 10.5366 31.1324 10.5186 33.7121C10.5005 36.2918 12.5771 38.3977 15.1568 38.4158Z" fill="#F7C592" stroke="#F7C592" stroke-width="1.87443" stroke-miterlimit="10"/>
<path d="M24.4987 38.4812C27.0784 38.4993 29.1843 36.4227 29.2024 33.843C29.2205 31.2633 27.1439 29.1574 24.5642 29.1393C21.9845 29.1212 19.8785 31.1978 19.8605 33.7775C19.8424 36.3572 21.919 38.4632 24.4987 38.4812Z" fill="#F7C592" stroke="#F7C592" stroke-width="1.87443" stroke-miterlimit="10"/>
<path d="M33.8408 38.5467C36.4205 38.5647 38.5264 36.4881 38.5445 33.9084C38.5625 31.3287 36.4859 29.2228 33.9062 29.2047C31.3265 29.1866 29.2206 31.2633 29.2025 33.843C29.1844 36.4227 31.2611 38.5286 33.8408 38.5467Z" fill="#F7C592" stroke="#F7C592" stroke-width="1.87443" stroke-miterlimit="10"/>
<path d="M15.0914 47.7615C17.6711 47.7796 19.777 45.703 19.7951 43.1233C19.8131 40.5435 17.7365 38.4376 15.1568 38.4196C12.5771 38.4015 10.4712 40.4781 10.4531 43.0578C10.4351 45.6375 12.5117 47.7434 15.0914 47.7615Z" fill="#F7C592" stroke="#F7C592" stroke-width="1.87443" stroke-miterlimit="10"/>
<path d="M24.4333 47.8269C27.013 47.845 29.1189 45.7684 29.137 43.1887C29.1551 40.609 27.0784 38.5031 24.4987 38.485C21.919 38.4669 19.8131 40.5435 19.795 43.1232C19.777 45.703 21.8536 47.8089 24.4333 47.8269Z" fill="#F7C592" stroke="#F7C592" stroke-width="1.87443" stroke-miterlimit="10"/>
<path d="M33.7752 47.8924C36.3549 47.9104 38.4608 45.8338 38.4789 43.2541C38.497 40.6744 36.4204 38.5685 33.8407 38.5504C31.2609 38.5323 29.155 40.609 29.137 43.1887C29.1189 45.7684 31.1955 47.8743 33.7752 47.8924Z" fill="#F7C592" stroke="#F7C592" stroke-width="1.87443" stroke-miterlimit="10"/>
<path d="M15.0259 57.1035C17.6057 57.1216 19.7116 55.045 19.7296 52.4653C19.7477 49.8856 17.6711 47.7797 15.0914 47.7616C12.5117 47.7435 10.4058 49.8201 10.3877 52.3999C10.3696 54.9796 12.4462 57.0855 15.0259 57.1035Z" fill="#F7C592" stroke="#F7C592" stroke-width="1.87443" stroke-miterlimit="10"/>
<path d="M24.3679 57.169C26.9476 57.187 29.0535 55.1104 29.0716 52.5307C29.0896 49.951 27.013 47.8451 24.4333 47.827C21.8536 47.809 19.7477 49.8856 19.7296 52.4653C19.7115 55.045 21.7882 57.1509 24.3679 57.169Z" fill="#F7C592" stroke="#F7C592" stroke-width="1.87443" stroke-miterlimit="10"/>
<path d="M33.7098 57.2344C36.2895 57.2525 38.3954 55.1759 38.4135 52.5962C38.4315 50.0164 36.3549 47.9105 33.7752 47.8925C31.1955 47.8744 29.0896 49.951 29.0715 52.5307C29.0535 55.1104 31.1301 57.2163 33.7098 57.2344Z" fill="#F7C592" stroke="#F7C592" stroke-width="1.87443" stroke-miterlimit="10"/>
<path d="M14.9605 66.4455C17.5402 66.4635 19.6461 64.3869 19.6642 61.8072C19.6823 59.2275 17.6057 57.1216 15.026 57.1035C12.4462 57.0854 10.3403 59.1621 10.3223 61.7418C10.3042 64.3215 12.3808 66.4274 14.9605 66.4455Z" fill="#F7C592" stroke="#F7C592" stroke-width="1.87443" stroke-miterlimit="10"/>
<path d="M24.3024 66.5109C26.8821 66.529 28.9881 64.4523 29.0061 61.8726C29.0242 59.2929 26.9476 57.187 24.3679 57.1689C21.7882 57.1509 19.6823 59.2275 19.6642 61.8072C19.6461 64.3869 21.7227 66.4928 24.3024 66.5109Z" fill="#F7C592" stroke="#F7C592" stroke-width="1.87443" stroke-miterlimit="10"/>
</g>
<defs>
<clipPath id="clip0_34_1586">
<rect width="39.2469" height="67.2819" fill="white" transform="translate(0.471313) rotate(0.401331)"/>
</clipPath>
</defs>
</svg>
