<svg width="64" height="78" viewBox="0 0 64 78" fill="none" xmlns="http://www.w3.org/2000/svg">
<g clip-path="url(#clip0_34_1332)">
<path d="M38.7512 57.3186C36.4042 56.2476 33.6334 57.2819 32.5624 59.6289C31.4914 61.9759 32.5258 64.7466 34.8728 65.8176C37.2197 66.8886 39.9905 65.8543 41.0615 63.5073C42.1325 61.1603 41.0981 58.3896 38.7512 57.3186Z" fill="#F7C592" stroke="#F7C592" stroke-width="1.87443" stroke-miterlimit="10"/>
<path d="M42.6296 48.8195C40.2826 47.7486 37.5118 48.7829 36.4409 51.1299C35.3699 53.4768 36.4042 56.2476 38.7512 57.3186C41.0981 58.3896 43.8689 57.3552 44.9399 55.0083C46.0109 52.6613 44.9765 49.8905 42.6296 48.8195Z" fill="#F7C592" stroke="#F7C592" stroke-width="1.87443" stroke-miterlimit="10"/>
<path d="M50.3879 31.818C48.0409 30.747 45.2701 31.7813 44.1992 34.1283C43.1282 36.4752 44.1625 39.246 46.5095 40.317C48.8565 41.388 51.6272 40.3536 52.6982 38.0067C53.7692 35.6597 52.7348 32.8889 50.3879 31.818Z" fill="#F7C592" stroke="#F7C592" stroke-width="1.87443" stroke-miterlimit="10"/>
<path d="M54.2663 23.3188C51.9194 22.2478 49.1486 23.2822 48.0776 25.6291C47.0066 27.9761 48.041 30.7469 50.3879 31.8179C52.7349 32.8889 55.5057 31.8545 56.5766 29.5075C57.6476 27.1606 56.6133 24.3898 54.2663 23.3188Z" fill="#F7C592" stroke="#F7C592" stroke-width="1.87443" stroke-miterlimit="10"/>
<path d="M26.3687 61.9411C24.0218 60.8701 21.251 61.9045 20.18 64.2515C19.109 66.5984 20.1434 69.3692 22.4903 70.4402C24.8373 71.5112 27.6081 70.4768 28.6791 68.1299C29.7501 65.7829 28.7157 63.0121 26.3687 61.9411Z" fill="#F7C592" stroke="#F7C592" stroke-width="1.87443" stroke-miterlimit="10"/>
<path d="M17.8697 58.0627C15.5227 56.9917 12.752 58.0261 11.681 60.373C10.61 62.72 11.6444 65.4908 13.9913 66.5618C16.3383 67.6328 19.1091 66.5984 20.18 64.2514C21.251 61.9045 20.2167 59.1337 17.8697 58.0627Z" fill="#F7C592" stroke="#F7C592" stroke-width="1.87443" stroke-miterlimit="10"/>
<path d="M30.2487 53.4386C27.9018 52.3676 25.131 53.4019 24.06 55.7489C22.989 58.0959 24.0234 60.8666 26.3703 61.9376C28.7173 63.0086 31.4881 61.9742 32.5591 59.6273C33.6301 57.2803 32.5957 54.5095 30.2487 53.4386Z" fill="#F7C592" stroke="#F7C592" stroke-width="1.87443" stroke-miterlimit="10"/>
<path d="M21.7496 49.5601C19.4026 48.4892 16.6318 49.5235 15.5608 51.8705C14.4899 54.2174 15.5242 56.9882 17.8712 58.0592C20.2181 59.1302 22.9889 58.0958 24.0599 55.7489C25.1309 53.4019 24.0965 50.6311 21.7496 49.5601Z" fill="#F7C592" stroke="#F7C592" stroke-width="1.87443" stroke-miterlimit="10"/>
<path d="M13.2506 45.6817C10.9036 44.6107 8.13281 45.6451 7.06182 47.9921C5.99083 50.339 7.02521 53.1098 9.37216 54.1808C11.7191 55.2518 14.4899 54.2174 15.5609 51.8705C16.6319 49.5235 15.5975 46.7527 13.2506 45.6817Z" fill="#F7C592" stroke="#F7C592" stroke-width="1.87443" stroke-miterlimit="10"/>
<path d="M34.1271 44.9395C31.7802 43.8685 29.0094 44.9029 27.9384 47.2499C26.8674 49.5968 27.9018 52.3676 30.2488 53.4386C32.5957 54.5096 35.3665 53.4752 36.4375 51.1283C37.5085 48.7813 36.4741 46.0105 34.1271 44.9395Z" fill="#F7C592" stroke="#F7C592" stroke-width="1.87443" stroke-miterlimit="10"/>
<path d="M25.628 41.0611C23.281 39.9901 20.5103 41.0245 19.4393 43.3715C18.3683 45.7184 19.4027 48.4892 21.7496 49.5602C24.0966 50.6312 26.8674 49.5968 27.9383 47.2499C29.0093 44.9029 27.975 42.1321 25.628 41.0611Z" fill="#F7C592" stroke="#F7C592" stroke-width="1.87443" stroke-miterlimit="10"/>
<path d="M17.129 37.1827C14.782 36.1117 12.0112 37.1461 10.9402 39.493C9.86925 41.84 10.9036 44.6108 13.2506 45.6818C15.5975 46.7528 18.3683 45.7184 19.4393 43.3714C20.5103 41.0245 19.4759 38.2537 17.129 37.1827Z" fill="#F7C592" stroke="#F7C592" stroke-width="1.87443" stroke-miterlimit="10"/>
<path d="M38.0054 36.4405C35.6585 35.3695 32.8877 36.4039 31.8167 38.7508C30.7457 41.0978 31.7801 43.8686 34.127 44.9396C36.474 46.0106 39.2448 44.9762 40.3158 42.6292C41.3868 40.2823 40.3524 37.5115 38.0054 36.4405Z" fill="#F7C592" stroke="#F7C592" stroke-width="1.87443" stroke-miterlimit="10"/>
<path d="M29.5064 32.5621C27.1595 31.4911 24.3887 32.5255 23.3177 34.8724C22.2467 37.2194 23.2811 39.9902 25.628 41.0612C27.975 42.1322 30.7458 41.0978 31.8168 38.7508C32.8878 36.4039 31.8534 33.6331 29.5064 32.5621Z" fill="#F7C592" stroke="#F7C592" stroke-width="1.87443" stroke-miterlimit="10"/>
<path d="M21.0073 28.6837C18.6603 27.6127 15.8895 28.6471 14.8185 30.994C13.7475 33.341 14.7819 36.1118 17.1289 37.1827C19.4758 38.2537 22.2466 37.2194 23.3176 34.8724C24.3886 32.5255 23.3542 29.7547 21.0073 28.6837Z" fill="#F7C592" stroke="#F7C592" stroke-width="1.87443" stroke-miterlimit="10"/>
<path d="M41.8854 27.9379C39.5385 26.867 36.7677 27.9013 35.6967 30.2483C34.6257 32.5952 35.6601 35.366 38.0071 36.437C40.354 37.508 43.1248 36.4736 44.1958 34.1267C45.2668 31.7797 44.2324 29.0089 41.8854 27.9379Z" fill="#F7C592" stroke="#F7C592" stroke-width="1.87443" stroke-miterlimit="10"/>
<path d="M33.3864 24.0595C31.0395 22.9885 28.2687 24.0229 27.1977 26.3699C26.1267 28.7168 27.1611 31.4876 29.508 32.5586C31.855 33.6296 34.6258 32.5952 35.6968 30.2483C36.7678 27.9013 35.7334 25.1305 33.3864 24.0595Z" fill="#F7C592" stroke="#F7C592" stroke-width="1.87443" stroke-miterlimit="10"/>
<path d="M24.8873 20.1811C22.5403 19.1101 19.7695 20.1445 18.6985 22.4914C17.6276 24.8384 18.6619 27.6092 21.0089 28.6802C23.3558 29.7512 26.1266 28.7168 27.1976 26.3698C28.2686 24.0229 27.2342 21.2521 24.8873 20.1811Z" fill="#F7C592" stroke="#F7C592" stroke-width="1.87443" stroke-miterlimit="10"/>
<path d="M45.7639 19.4388C43.4169 18.3678 40.6461 19.4022 39.5751 21.7491C38.5041 24.0961 39.5385 26.8669 41.8855 27.9379C44.2324 29.0089 47.0032 27.9745 48.0742 25.6275C49.1452 23.2806 48.1108 20.5098 45.7639 19.4388Z" fill="#F7C592" stroke="#F7C592" stroke-width="1.87443" stroke-miterlimit="10"/>
<path d="M37.2647 15.5605C34.9178 14.4895 32.147 15.5239 31.076 17.8708C30.005 20.2178 31.0394 22.9886 33.3863 24.0596C35.7333 25.1306 38.5041 24.0962 39.5751 21.7492C40.6461 19.4023 39.6117 16.6315 37.2647 15.5605Z" fill="#F7C592" stroke="#F7C592" stroke-width="1.87443" stroke-miterlimit="10"/>
<path d="M28.7657 11.6821C26.4187 10.6111 23.6479 11.6455 22.577 13.9924C21.506 16.3394 22.5403 19.1102 24.8873 20.1812C27.2343 21.2522 30.005 20.2178 31.076 17.8708C32.147 15.5239 31.1126 12.7531 28.7657 11.6821Z" fill="#F7C592" stroke="#F7C592" stroke-width="1.87443" stroke-miterlimit="10"/>
<path d="M49.6423 10.9398C47.2953 9.86878 44.5245 10.9032 43.4536 13.2501C42.3826 15.5971 43.4169 18.3679 45.7639 19.4389C48.1108 20.5098 50.8816 19.4755 51.9526 17.1285C53.0236 14.7816 51.9892 12.0108 49.6423 10.9398Z" fill="#F7C592" stroke="#F7C592" stroke-width="1.87443" stroke-miterlimit="10"/>
<path d="M41.1431 7.06136C38.7962 5.99037 36.0254 7.02474 34.9544 9.3717C33.8834 11.7187 34.9178 14.4894 37.2647 15.5604C39.6117 16.6314 42.3825 15.597 43.4535 13.2501C44.5245 10.9031 43.4901 8.13235 41.1431 7.06136Z" fill="#F7C592" stroke="#F7C592" stroke-width="1.87443" stroke-miterlimit="10"/>
</g>
<defs>
<clipPath id="clip0_34_1332">
<rect width="39.2469" height="67.2819" fill="white" transform="translate(35.705 77.5032) rotate(-155.471)"/>
</clipPath>
</defs>
</svg>
