<svg width="71" height="78" viewBox="0 0 71 78" fill="none" xmlns="http://www.w3.org/2000/svg">
<g clip-path="url(#clip0_34_1442)">
<path d="M15.6534 35.1188C17.789 33.6716 18.3471 30.7672 16.8999 28.6316C15.4527 26.496 12.5483 25.9379 10.4127 27.385C8.27704 28.8322 7.71894 31.7366 9.16612 33.8723C10.6133 36.0079 13.5177 36.566 15.6534 35.1188Z" fill="#F7C592" stroke="#F7C592" stroke-width="1.87443" stroke-miterlimit="10"/>
<path d="M20.894 42.8526C23.0296 41.4054 23.5877 38.501 22.1405 36.3654C20.6933 34.2297 17.7889 33.6716 15.6533 35.1188C13.5176 36.566 12.9595 39.4704 14.4067 41.606C15.8539 43.7417 18.7583 44.2998 20.894 42.8526Z" fill="#F7C592" stroke="#F7C592" stroke-width="1.87443" stroke-miterlimit="10"/>
<path d="M31.3775 58.3233C33.5131 56.8761 34.0712 53.9717 32.624 51.8361C31.1769 49.7004 28.2724 49.1423 26.1368 50.5895C24.0012 52.0367 23.4431 54.9411 24.8902 57.0767C26.3374 59.2124 29.2418 59.7705 31.3775 58.3233Z" fill="#F7C592" stroke="#F7C592" stroke-width="1.87443" stroke-miterlimit="10"/>
<path d="M36.6181 66.0571C38.7537 64.6099 39.3118 61.7054 37.8646 59.5698C36.4175 57.4342 33.513 56.8761 31.3774 58.3233C29.2418 59.7704 28.6837 62.6749 30.1308 64.8105C31.578 66.9461 34.4824 67.5042 36.6181 66.0571Z" fill="#F7C592" stroke="#F7C592" stroke-width="1.87443" stroke-miterlimit="10"/>
<path d="M18.1474 22.1391C20.283 20.6919 20.8411 17.7875 19.3939 15.6518C17.9468 13.5162 15.0423 12.9581 12.9067 14.4053C10.7711 15.8525 10.213 18.7569 11.6601 20.8925C13.1073 23.0282 16.0117 23.5863 18.1474 22.1391Z" fill="#F7C592" stroke="#F7C592" stroke-width="1.87443" stroke-miterlimit="10"/>
<path d="M25.8813 16.8984C28.0169 15.4512 28.575 12.5468 27.1278 10.4111C25.6806 8.2755 22.7762 7.7174 20.6406 9.16457C18.5049 10.6117 17.9468 13.5162 19.394 15.6518C20.8412 17.7874 23.7456 18.3455 25.8813 16.8984Z" fill="#F7C592" stroke="#F7C592" stroke-width="1.87443" stroke-miterlimit="10"/>
<path d="M23.3902 29.876C25.5258 28.4288 26.0839 25.5244 24.6367 23.3888C23.1895 21.2532 20.2851 20.6951 18.1495 22.1422C16.0139 23.5894 15.4558 26.4938 16.9029 28.6295C18.3501 30.7651 21.2545 31.3232 23.3902 29.876Z" fill="#F7C592" stroke="#F7C592" stroke-width="1.87443" stroke-miterlimit="10"/>
<path d="M31.1241 24.6353C33.2597 23.1881 33.8178 20.2837 32.3706 18.1481C30.9234 16.0124 28.019 15.4543 25.8834 16.9015C23.7477 18.3487 23.1896 21.2531 24.6368 23.3887C26.084 25.5244 28.9884 26.0825 31.1241 24.6353Z" fill="#F7C592" stroke="#F7C592" stroke-width="1.87443" stroke-miterlimit="10"/>
<path d="M38.8578 19.3947C40.9934 17.9475 41.5515 15.0431 40.1044 12.9075C38.6572 10.7718 35.7528 10.2137 33.6171 11.6609C31.4815 13.1081 30.9234 16.0125 32.3706 18.1481C33.8178 20.2838 36.7222 20.8419 38.8578 19.3947Z" fill="#F7C592" stroke="#F7C592" stroke-width="1.87443" stroke-miterlimit="10"/>
<path d="M28.6309 37.6098C30.7665 36.1626 31.3246 33.2582 29.8774 31.1226C28.4303 28.9869 25.5258 28.4288 23.3902 29.876C21.2546 31.3232 20.6965 34.2276 22.1437 36.3632C23.5908 38.4989 26.4953 39.057 28.6309 37.6098Z" fill="#F7C592" stroke="#F7C592" stroke-width="1.87443" stroke-miterlimit="10"/>
<path d="M36.3647 32.3691C38.5003 30.9219 39.0584 28.0175 37.6112 25.8818C36.164 23.7462 33.2596 23.1881 31.124 24.6353C28.9883 26.0824 28.4302 28.9869 29.8774 31.1225C31.3246 33.2581 34.229 33.8162 36.3647 32.3691Z" fill="#F7C592" stroke="#F7C592" stroke-width="1.87443" stroke-miterlimit="10"/>
<path d="M44.0984 27.1283C46.234 25.6812 46.7922 22.7767 45.345 20.6411C43.8978 18.5055 40.9934 17.9474 38.8577 19.3946C36.7221 20.8417 36.164 23.7462 37.6112 25.8818C39.0584 28.0174 41.9628 28.5755 44.0984 27.1283Z" fill="#F7C592" stroke="#F7C592" stroke-width="1.87443" stroke-miterlimit="10"/>
<path d="M33.8715 45.3436C36.0071 43.8964 36.5652 40.9919 35.118 38.8563C33.6709 36.7207 30.7664 36.1626 28.6308 37.6098C26.4952 39.0569 25.9371 41.9614 27.3843 44.097C28.8314 46.2326 31.7359 46.7907 33.8715 45.3436Z" fill="#F7C592" stroke="#F7C592" stroke-width="1.87443" stroke-miterlimit="10"/>
<path d="M41.6054 40.1028C43.741 38.6557 44.2991 35.7512 42.8519 33.6156C41.4048 31.48 38.5003 30.9219 36.3647 32.369C34.2291 33.8162 33.671 36.7206 35.1181 38.8563C36.5653 40.9919 39.4698 41.55 41.6054 40.1028Z" fill="#F7C592" stroke="#F7C592" stroke-width="1.87443" stroke-miterlimit="10"/>
<path d="M49.3391 34.8622C51.4748 33.4151 52.0329 30.5106 50.5857 28.375C49.1385 26.2394 46.2341 25.6813 44.0985 27.1284C41.9628 28.5756 41.4047 31.48 42.8519 33.6157C44.2991 35.7513 47.2035 36.3094 49.3391 34.8622Z" fill="#F7C592" stroke="#F7C592" stroke-width="1.87443" stroke-miterlimit="10"/>
<path d="M39.1143 53.0805C41.2499 51.6333 41.808 48.7289 40.3608 46.5933C38.9137 44.4576 36.0092 43.8995 33.8736 45.3467C31.738 46.7939 31.1799 49.6983 32.6271 51.8339C34.0742 53.9696 36.9787 54.5277 39.1143 53.0805Z" fill="#F7C592" stroke="#F7C592" stroke-width="1.87443" stroke-miterlimit="10"/>
<path d="M46.8482 47.8398C48.9838 46.3926 49.5419 43.4882 48.0947 41.3525C46.6476 39.2169 43.7431 38.6588 41.6075 40.106C39.4719 41.5532 38.9138 44.4576 40.3609 46.5932C41.8081 48.7288 44.7125 49.2869 46.8482 47.8398Z" fill="#F7C592" stroke="#F7C592" stroke-width="1.87443" stroke-miterlimit="10"/>
<path d="M54.5819 42.599C56.7176 41.1519 57.2757 38.2474 55.8285 36.1118C54.3813 33.9762 51.4769 33.4181 49.3413 34.8653C47.2056 36.3124 46.6475 39.2169 48.0947 41.3525C49.5419 43.4881 52.4463 44.0462 54.5819 42.599Z" fill="#F7C592" stroke="#F7C592" stroke-width="1.87443" stroke-miterlimit="10"/>
<path d="M44.355 60.8143C46.4906 59.3671 47.0487 56.4626 45.6016 54.327C44.1544 52.1914 41.25 51.6333 39.1143 53.0805C36.9787 54.5276 36.4206 57.4321 37.8678 59.5677C39.315 61.7033 42.2194 62.2614 44.355 60.8143Z" fill="#F7C592" stroke="#F7C592" stroke-width="1.87443" stroke-miterlimit="10"/>
<path d="M52.0888 55.5735C54.2244 54.1264 54.7825 51.2219 53.3353 49.0863C51.8882 46.9507 48.9837 46.3926 46.8481 47.8397C44.7125 49.2869 44.1544 52.1914 45.6015 54.327C47.0487 56.4626 49.9531 57.0207 52.0888 55.5735Z" fill="#F7C592" stroke="#F7C592" stroke-width="1.87443" stroke-miterlimit="10"/>
<path d="M59.8227 50.3329C61.9583 48.8858 62.5164 45.9813 61.0692 43.8457C59.622 41.7101 56.7176 41.152 54.582 42.5991C52.4464 44.0463 51.8883 46.9507 53.3354 49.0864C54.7826 51.222 57.687 51.7801 59.8227 50.3329Z" fill="#F7C592" stroke="#F7C592" stroke-width="1.87443" stroke-miterlimit="10"/>
<path d="M49.5957 68.548C51.7314 67.1009 52.2895 64.1964 50.8423 62.0608C49.3951 59.9252 46.4907 59.3671 44.3551 60.8142C42.2194 62.2614 41.6613 65.1658 43.1085 67.3015C44.5557 69.4371 47.4601 69.9952 49.5957 68.548Z" fill="#F7C592" stroke="#F7C592" stroke-width="1.87443" stroke-miterlimit="10"/>
<path d="M57.3295 63.3074C59.4651 61.8602 60.0232 58.9558 58.5761 56.8202C57.1289 54.6846 54.2244 54.1265 52.0888 55.5736C49.9532 57.0208 49.3951 59.9252 50.8423 62.0609C52.2894 64.1965 55.1939 64.7546 57.3295 63.3074Z" fill="#F7C592" stroke="#F7C592" stroke-width="1.87443" stroke-miterlimit="10"/>
</g>
<defs>
<clipPath id="clip0_34_1442">
<rect width="39.2469" height="67.2819" fill="white" transform="translate(0 22.0164) rotate(-34.1229)"/>
</clipPath>
</defs>
</svg>
