<svg width="48" height="82" viewBox="0 0 48 82" fill="none" xmlns="http://www.w3.org/2000/svg">
<g clip-path="url(#clip0_81_29469)">
<path d="M6.79301 23.7754C9.91794 23.7754 12.4512 21.2421 12.4512 18.1172C12.4512 14.9922 9.91794 12.459 6.79301 12.459C3.66808 12.459 1.13483 14.9922 1.13483 18.1172C1.13483 21.2421 3.66808 23.7754 6.79301 23.7754Z" fill="#F7C592" stroke="#F7C592" stroke-width="2.26971" stroke-miterlimit="10"/>
<path d="M6.79301 35.0957C9.91794 35.0957 12.4512 32.5624 12.4512 29.4375C12.4512 26.3126 9.91794 23.7793 6.79301 23.7793C3.66808 23.7793 1.13483 26.3126 1.13483 29.4375C1.13483 32.5624 3.66808 35.0957 6.79301 35.0957Z" fill="#F7C592" stroke="#F7C592" stroke-width="2.26971" stroke-miterlimit="10"/>
<path d="M6.79301 57.7324C9.91794 57.7324 12.4512 55.1991 12.4512 52.0742C12.4512 48.9493 9.91794 46.416 6.79301 46.416C3.66808 46.416 1.13483 48.9493 1.13483 52.0742C1.13483 55.1991 3.66808 57.7324 6.79301 57.7324Z" fill="#F7C592" stroke="#F7C592" stroke-width="2.26971" stroke-miterlimit="10"/>
<path d="M6.79301 69.0488C9.91794 69.0488 12.4512 66.5155 12.4512 63.3906C12.4512 60.2657 9.91794 57.7324 6.79301 57.7324C3.66808 57.7324 1.13483 60.2657 1.13483 63.3906C1.13483 66.5155 3.66808 69.0488 6.79301 69.0488Z" fill="#F7C592" stroke="#F7C592" stroke-width="2.26971" stroke-miterlimit="10"/>
<path d="M18.1134 12.455C21.2384 12.455 23.7716 9.92179 23.7716 6.79686C23.7716 3.67193 21.2384 1.13867 18.1134 1.13867C14.9885 1.13867 12.4553 3.67193 12.4553 6.79686C12.4553 9.92179 14.9885 12.455 18.1134 12.455Z" fill="#F7C592" stroke="#F7C592" stroke-width="2.26971" stroke-miterlimit="10"/>
<path d="M29.4338 12.455C32.5588 12.455 35.092 9.92179 35.092 6.79686C35.092 3.67193 32.5588 1.13867 29.4338 1.13867C26.3089 1.13867 23.7756 3.67193 23.7756 6.79686C23.7756 9.92179 26.3089 12.455 29.4338 12.455Z" fill="#F7C592" stroke="#F7C592" stroke-width="2.26971" stroke-miterlimit="10"/>
<path d="M18.1134 23.7754C21.2384 23.7754 23.7716 21.2421 23.7716 18.1172C23.7716 14.9922 21.2384 12.459 18.1134 12.459C14.9885 12.459 12.4553 14.9922 12.4553 18.1172C12.4553 21.2421 14.9885 23.7754 18.1134 23.7754Z" fill="#F7C592" stroke="#F7C592" stroke-width="2.26971" stroke-miterlimit="10"/>
<path d="M29.4338 23.7754C32.5588 23.7754 35.092 21.2421 35.092 18.1172C35.092 14.9922 32.5588 12.459 29.4338 12.459C26.3089 12.459 23.7756 14.9922 23.7756 18.1172C23.7756 21.2421 26.3089 23.7754 29.4338 23.7754Z" fill="#F7C592" stroke="#F7C592" stroke-width="2.26971" stroke-miterlimit="10"/>
<path d="M40.7502 23.7754C43.8751 23.7754 46.4084 21.2421 46.4084 18.1172C46.4084 14.9922 43.8751 12.459 40.7502 12.459C37.6252 12.459 35.092 14.9922 35.092 18.1172C35.092 21.2421 37.6252 23.7754 40.7502 23.7754Z" fill="#F7C592" stroke="#F7C592" stroke-width="2.26971" stroke-miterlimit="10"/>
<path d="M18.1134 35.0957C21.2384 35.0957 23.7716 32.5624 23.7716 29.4375C23.7716 26.3126 21.2384 23.7793 18.1134 23.7793C14.9885 23.7793 12.4553 26.3126 12.4553 29.4375C12.4553 32.5624 14.9885 35.0957 18.1134 35.0957Z" fill="#F7C592" stroke="#F7C592" stroke-width="2.26971" stroke-miterlimit="10"/>
<path d="M29.4338 35.0957C32.5588 35.0957 35.092 32.5624 35.092 29.4375C35.092 26.3126 32.5588 23.7793 29.4338 23.7793C26.3089 23.7793 23.7756 26.3126 23.7756 29.4375C23.7756 32.5624 26.3089 35.0957 29.4338 35.0957Z" fill="#F7C592" stroke="#F7C592" stroke-width="2.26971" stroke-miterlimit="10"/>
<path d="M40.7502 35.0957C43.8751 35.0957 46.4084 32.5624 46.4084 29.4375C46.4084 26.3126 43.8751 23.7793 40.7502 23.7793C37.6252 23.7793 35.092 26.3126 35.092 29.4375C35.092 32.5624 37.6252 35.0957 40.7502 35.0957Z" fill="#F7C592" stroke="#F7C592" stroke-width="2.26971" stroke-miterlimit="10"/>
<path d="M18.1134 46.4121C21.2384 46.4121 23.7716 43.8788 23.7716 40.7539C23.7716 37.629 21.2384 35.0957 18.1134 35.0957C14.9885 35.0957 12.4553 37.629 12.4553 40.7539C12.4553 43.8788 14.9885 46.4121 18.1134 46.4121Z" fill="#F7C592" stroke="#F7C592" stroke-width="2.26971" stroke-miterlimit="10"/>
<path d="M29.4338 46.4121C32.5588 46.4121 35.092 43.8788 35.092 40.7539C35.092 37.629 32.5588 35.0957 29.4338 35.0957C26.3089 35.0957 23.7756 37.629 23.7756 40.7539C23.7756 43.8788 26.3089 46.4121 29.4338 46.4121Z" fill="#F7C592" stroke="#F7C592" stroke-width="2.26971" stroke-miterlimit="10"/>
<path d="M40.7502 46.4121C43.8751 46.4121 46.4084 43.8788 46.4084 40.7539C46.4084 37.629 43.8751 35.0957 40.7502 35.0957C37.6252 35.0957 35.092 37.629 35.092 40.7539C35.092 43.8788 37.6252 46.4121 40.7502 46.4121Z" fill="#F7C592" stroke="#F7C592" stroke-width="2.26971" stroke-miterlimit="10"/>
<path d="M18.1134 57.7324C21.2384 57.7324 23.7716 55.1991 23.7716 52.0742C23.7716 48.9493 21.2384 46.416 18.1134 46.416C14.9885 46.416 12.4553 48.9493 12.4553 52.0742C12.4553 55.1991 14.9885 57.7324 18.1134 57.7324Z" fill="#F7C592" stroke="#F7C592" stroke-width="2.26971" stroke-miterlimit="10"/>
<path d="M29.4338 57.7324C32.5588 57.7324 35.092 55.1991 35.092 52.0742C35.092 48.9493 32.5588 46.416 29.4338 46.416C26.3089 46.416 23.7756 48.9493 23.7756 52.0742C23.7756 55.1991 26.3089 57.7324 29.4338 57.7324Z" fill="#F7C592" stroke="#F7C592" stroke-width="2.26971" stroke-miterlimit="10"/>
<path d="M40.7502 57.7324C43.8751 57.7324 46.4084 55.1991 46.4084 52.0742C46.4084 48.9493 43.8751 46.416 40.7502 46.416C37.6252 46.416 35.092 48.9493 35.092 52.0742C35.092 55.1991 37.6252 57.7324 40.7502 57.7324Z" fill="#F7C592" stroke="#F7C592" stroke-width="2.26971" stroke-miterlimit="10"/>
<path d="M18.1134 69.0488C21.2384 69.0488 23.7716 66.5155 23.7716 63.3906C23.7716 60.2657 21.2384 57.7324 18.1134 57.7324C14.9885 57.7324 12.4553 60.2657 12.4553 63.3906C12.4553 66.5155 14.9885 69.0488 18.1134 69.0488Z" fill="#F7C592" stroke="#F7C592" stroke-width="2.26971" stroke-miterlimit="10"/>
<path d="M29.4338 69.0488C32.5588 69.0488 35.092 66.5155 35.092 63.3906C35.092 60.2657 32.5588 57.7324 29.4338 57.7324C26.3089 57.7324 23.7756 60.2657 23.7756 63.3906C23.7756 66.5155 26.3089 69.0488 29.4338 69.0488Z" fill="#F7C592" stroke="#F7C592" stroke-width="2.26971" stroke-miterlimit="10"/>
<path d="M40.7502 69.0488C43.8751 69.0488 46.4084 66.5155 46.4084 63.3906C46.4084 60.2657 43.8751 57.7324 40.7502 57.7324C37.6252 57.7324 35.092 60.2657 35.092 63.3906C35.092 66.5155 37.6252 69.0488 40.7502 69.0488Z" fill="#F7C592" stroke="#F7C592" stroke-width="2.26971" stroke-miterlimit="10"/>
<path d="M18.1134 80.3691C21.2384 80.3691 23.7716 77.8358 23.7716 74.7109C23.7716 71.586 21.2384 69.0527 18.1134 69.0527C14.9885 69.0527 12.4553 71.586 12.4553 74.7109C12.4553 77.8358 14.9885 80.3691 18.1134 80.3691Z" fill="#F7C592" stroke="#F7C592" stroke-width="2.26971" stroke-miterlimit="10"/>
<path d="M29.4338 80.3691C32.5588 80.3691 35.092 77.8358 35.092 74.7109C35.092 71.586 32.5588 69.0527 29.4338 69.0527C26.3089 69.0527 23.7756 71.586 23.7756 74.7109C23.7756 77.8358 26.3089 80.3691 29.4338 80.3691Z" fill="#F7C592" stroke="#F7C592" stroke-width="2.26971" stroke-miterlimit="10"/>
</g>
<defs>
<clipPath id="clip0_81_29469">
<rect width="47.5473" height="81.508" fill="white"/>
</clipPath>
</defs>
</svg>
