<svg width="59" height="82" viewBox="0 0 59 82" fill="none" xmlns="http://www.w3.org/2000/svg">
<g clip-path="url(#clip0_81_30499)">
<path d="M6.79308 35.0957C9.91801 35.0957 12.4513 32.5624 12.4513 29.4375C12.4513 26.3126 9.91801 23.7793 6.79308 23.7793C3.66815 23.7793 1.13489 26.3126 1.13489 29.4375C1.13489 32.5624 3.66815 35.0957 6.79308 35.0957Z" fill="#F7C592" stroke="#F7C592" stroke-width="2.26972" stroke-miterlimit="10"/>
<path d="M6.79308 46.4121C9.91801 46.4121 12.4513 43.8788 12.4513 40.7539C12.4513 37.629 9.91801 35.0957 6.79308 35.0957C3.66815 35.0957 1.13489 37.629 1.13489 40.7539C1.13489 43.8788 3.66815 46.4121 6.79308 46.4121Z" fill="#F7C592" stroke="#F7C592" stroke-width="2.26972" stroke-miterlimit="10"/>
<path d="M18.1135 12.4551C21.2384 12.4551 23.7716 9.9218 23.7716 6.79686C23.7716 3.67193 21.2384 1.13867 18.1135 1.13867C14.9885 1.13867 12.4553 3.67193 12.4553 6.79686C12.4553 9.9218 14.9885 12.4551 18.1135 12.4551Z" fill="#F7C592" stroke="#F7C592" stroke-width="2.26972" stroke-miterlimit="10"/>
<path d="M29.4339 12.4551C32.5588 12.4551 35.0921 9.9218 35.0921 6.79686C35.0921 3.67193 32.5588 1.13867 29.4339 1.13867C26.309 1.13867 23.7757 3.67193 23.7757 6.79686C23.7757 9.9218 26.309 12.4551 29.4339 12.4551Z" fill="#F7C592" stroke="#F7C592" stroke-width="2.26972" stroke-miterlimit="10"/>
<path d="M18.1135 23.7754C21.2384 23.7754 23.7716 21.2421 23.7716 18.1172C23.7716 14.9922 21.2384 12.459 18.1135 12.459C14.9885 12.459 12.4553 14.9922 12.4553 18.1172C12.4553 21.2421 14.9885 23.7754 18.1135 23.7754Z" fill="#F7C592" stroke="#F7C592" stroke-width="2.26972" stroke-miterlimit="10"/>
<path d="M29.4339 23.7754C32.5588 23.7754 35.0921 21.2421 35.0921 18.1172C35.0921 14.9922 32.5588 12.459 29.4339 12.459C26.309 12.459 23.7757 14.9922 23.7757 18.1172C23.7757 21.2421 26.309 23.7754 29.4339 23.7754Z" fill="#F7C592" stroke="#F7C592" stroke-width="2.26972" stroke-miterlimit="10"/>
<path d="M40.7502 23.7754C43.8752 23.7754 46.4084 21.2421 46.4084 18.1172C46.4084 14.9922 43.8752 12.459 40.7502 12.459C37.6253 12.459 35.092 14.9922 35.092 18.1172C35.092 21.2421 37.6253 23.7754 40.7502 23.7754Z" fill="#F7C592" stroke="#F7C592" stroke-width="2.26972" stroke-miterlimit="10"/>
<path d="M18.1135 35.0957C21.2384 35.0957 23.7716 32.5624 23.7716 29.4375C23.7716 26.3126 21.2384 23.7793 18.1135 23.7793C14.9885 23.7793 12.4553 26.3126 12.4553 29.4375C12.4553 32.5624 14.9885 35.0957 18.1135 35.0957Z" fill="#F7C592" stroke="#F7C592" stroke-width="2.26972" stroke-miterlimit="10"/>
<path d="M29.4339 35.0957C32.5588 35.0957 35.0921 32.5624 35.0921 29.4375C35.0921 26.3126 32.5588 23.7793 29.4339 23.7793C26.309 23.7793 23.7757 26.3126 23.7757 29.4375C23.7757 32.5624 26.309 35.0957 29.4339 35.0957Z" fill="#F7C592" stroke="#F7C592" stroke-width="2.26972" stroke-miterlimit="10"/>
<path d="M40.7502 35.0957C43.8752 35.0957 46.4084 32.5624 46.4084 29.4375C46.4084 26.3126 43.8752 23.7793 40.7502 23.7793C37.6253 23.7793 35.092 26.3126 35.092 29.4375C35.092 32.5624 37.6253 35.0957 40.7502 35.0957Z" fill="#F7C592" stroke="#F7C592" stroke-width="2.26972" stroke-miterlimit="10"/>
<path d="M18.1135 46.4121C21.2384 46.4121 23.7716 43.8788 23.7716 40.7539C23.7716 37.629 21.2384 35.0957 18.1135 35.0957C14.9885 35.0957 12.4553 37.629 12.4553 40.7539C12.4553 43.8788 14.9885 46.4121 18.1135 46.4121Z" fill="#F7C592" stroke="#F7C592" stroke-width="2.26972" stroke-miterlimit="10"/>
<path d="M29.4339 46.4121C32.5588 46.4121 35.0921 43.8788 35.0921 40.7539C35.0921 37.629 32.5588 35.0957 29.4339 35.0957C26.309 35.0957 23.7757 37.629 23.7757 40.7539C23.7757 43.8788 26.309 46.4121 29.4339 46.4121Z" fill="#F7C592" stroke="#F7C592" stroke-width="2.26972" stroke-miterlimit="10"/>
<path d="M40.7502 46.4121C43.8752 46.4121 46.4084 43.8788 46.4084 40.7539C46.4084 37.629 43.8752 35.0957 40.7502 35.0957C37.6253 35.0957 35.092 37.629 35.092 40.7539C35.092 43.8788 37.6253 46.4121 40.7502 46.4121Z" fill="#F7C592" stroke="#F7C592" stroke-width="2.26972" stroke-miterlimit="10"/>
<path d="M52.0707 46.4121C55.1956 46.4121 57.7289 43.8788 57.7289 40.7539C57.7289 37.629 55.1956 35.0957 52.0707 35.0957C48.9457 35.0957 46.4125 37.629 46.4125 40.7539C46.4125 43.8788 48.9457 46.4121 52.0707 46.4121Z" fill="#F7C592" stroke="#F7C592" stroke-width="2.26972" stroke-miterlimit="10"/>
<path d="M18.1135 57.7324C21.2384 57.7324 23.7716 55.1991 23.7716 52.0742C23.7716 48.9493 21.2384 46.416 18.1135 46.416C14.9885 46.416 12.4553 48.9493 12.4553 52.0742C12.4553 55.1991 14.9885 57.7324 18.1135 57.7324Z" fill="#F7C592" stroke="#F7C592" stroke-width="2.26972" stroke-miterlimit="10"/>
<path d="M29.4339 57.7324C32.5588 57.7324 35.0921 55.1991 35.0921 52.0742C35.0921 48.9493 32.5588 46.416 29.4339 46.416C26.309 46.416 23.7757 48.9493 23.7757 52.0742C23.7757 55.1991 26.309 57.7324 29.4339 57.7324Z" fill="#F7C592" stroke="#F7C592" stroke-width="2.26972" stroke-miterlimit="10"/>
<path d="M40.7502 57.7324C43.8752 57.7324 46.4084 55.1991 46.4084 52.0742C46.4084 48.9493 43.8752 46.416 40.7502 46.416C37.6253 46.416 35.092 48.9493 35.092 52.0742C35.092 55.1991 37.6253 57.7324 40.7502 57.7324Z" fill="#F7C592" stroke="#F7C592" stroke-width="2.26972" stroke-miterlimit="10"/>
<path d="M52.0707 57.7324C55.1956 57.7324 57.7289 55.1991 57.7289 52.0742C57.7289 48.9493 55.1956 46.416 52.0707 46.416C48.9457 46.416 46.4125 48.9493 46.4125 52.0742C46.4125 55.1991 48.9457 57.7324 52.0707 57.7324Z" fill="#F7C592" stroke="#F7C592" stroke-width="2.26972" stroke-miterlimit="10"/>
<path d="M18.1135 69.0493C21.2384 69.0493 23.7716 66.516 23.7716 63.3911C23.7716 60.2662 21.2384 57.7329 18.1135 57.7329C14.9885 57.7329 12.4553 60.2662 12.4553 63.3911C12.4553 66.516 14.9885 69.0493 18.1135 69.0493Z" fill="#F7C592" stroke="#F7C592" stroke-width="2.26972" stroke-miterlimit="10"/>
<path d="M29.4339 69.0493C32.5588 69.0493 35.0921 66.516 35.0921 63.3911C35.0921 60.2662 32.5588 57.7329 29.4339 57.7329C26.309 57.7329 23.7757 60.2662 23.7757 63.3911C23.7757 66.516 26.309 69.0493 29.4339 69.0493Z" fill="#F7C592" stroke="#F7C592" stroke-width="2.26972" stroke-miterlimit="10"/>
<path d="M40.7502 69.0493C43.8752 69.0493 46.4084 66.516 46.4084 63.3911C46.4084 60.2662 43.8752 57.7329 40.7502 57.7329C37.6253 57.7329 35.092 60.2662 35.092 63.3911C35.092 66.516 37.6253 69.0493 40.7502 69.0493Z" fill="#F7C592" stroke="#F7C592" stroke-width="2.26972" stroke-miterlimit="10"/>
<path d="M52.0707 69.0493C55.1956 69.0493 57.7289 66.516 57.7289 63.3911C57.7289 60.2662 55.1956 57.7329 52.0707 57.7329C48.9457 57.7329 46.4125 60.2662 46.4125 63.3911C46.4125 66.516 48.9457 69.0493 52.0707 69.0493Z" fill="#F7C592" stroke="#F7C592" stroke-width="2.26972" stroke-miterlimit="10"/>
<path d="M29.4339 80.3696C32.5588 80.3696 35.0921 77.8363 35.0921 74.7114C35.0921 71.5865 32.5588 69.0532 29.4339 69.0532C26.309 69.0532 23.7757 71.5865 23.7757 74.7114C23.7757 77.8363 26.309 80.3696 29.4339 80.3696Z" fill="#F7C592" stroke="#F7C592" stroke-width="2.26972" stroke-miterlimit="10"/>
<path d="M40.7502 80.3696C43.8752 80.3696 46.4084 77.8363 46.4084 74.7114C46.4084 71.5865 43.8752 69.0532 40.7502 69.0532C37.6253 69.0532 35.092 71.5865 35.092 74.7114C35.092 77.8363 37.6253 80.3696 40.7502 80.3696Z" fill="#F7C592" stroke="#F7C592" stroke-width="2.26972" stroke-miterlimit="10"/>
</g>
<defs>
<clipPath id="clip0_81_30499">
<rect width="58.8637" height="81.508" fill="white"/>
</clipPath>
</defs>
</svg>
