<svg width="59" height="71" viewBox="0 0 59 71" fill="none" xmlns="http://www.w3.org/2000/svg">
<g clip-path="url(#clip0_81_30525)">
<path d="M6.79435 23.7703C9.9191 23.7703 12.4522 21.2372 12.4522 18.1125C12.4522 14.9877 9.9191 12.4546 6.79435 12.4546C3.66959 12.4546 1.13647 14.9877 1.13647 18.1125C1.13647 21.2372 3.66959 23.7703 6.79435 23.7703Z" fill="#F7C592" stroke="#F7C592" stroke-width="2.26959" stroke-miterlimit="10"/>
<path d="M6.79435 35.0902C9.9191 35.0902 12.4522 32.557 12.4522 29.4323C12.4522 26.3075 9.9191 23.7744 6.79435 23.7744C3.66959 23.7744 1.13647 26.3075 1.13647 29.4323C1.13647 32.557 3.66959 35.0902 6.79435 35.0902Z" fill="#F7C592" stroke="#F7C592" stroke-width="2.26959" stroke-miterlimit="10"/>
<path d="M6.79435 46.4061C9.9191 46.4061 12.4522 43.873 12.4522 40.7482C12.4522 37.6235 9.9191 35.0903 6.79435 35.0903C3.66959 35.0903 1.13647 37.6235 1.13647 40.7482C1.13647 43.873 3.66959 46.4061 6.79435 46.4061Z" fill="#F7C592" stroke="#F7C592" stroke-width="2.26959" stroke-miterlimit="10"/>
<path d="M6.79435 57.7259C9.9191 57.7259 12.4522 55.1928 12.4522 52.068C12.4522 48.9433 9.9191 46.4102 6.79435 46.4102C3.66959 46.4102 1.13647 48.9433 1.13647 52.068C1.13647 55.1928 3.66959 57.7259 6.79435 57.7259Z" fill="#F7C592" stroke="#F7C592" stroke-width="2.26959" stroke-miterlimit="10"/>
<path d="M18.1142 12.4505C21.2389 12.4505 23.772 9.91739 23.772 6.79264C23.772 3.66788 21.2389 1.13477 18.1142 1.13477C14.9894 1.13477 12.4563 3.66788 12.4563 6.79264C12.4563 9.91739 14.9894 12.4505 18.1142 12.4505Z" fill="#F7C592" stroke="#F7C592" stroke-width="2.26959" stroke-miterlimit="10"/>
<path d="M29.4339 12.4505C32.5587 12.4505 35.0918 9.91739 35.0918 6.79264C35.0918 3.66788 32.5587 1.13477 29.4339 1.13477C26.3092 1.13477 23.7761 3.66788 23.7761 6.79264C23.7761 9.91739 26.3092 12.4505 29.4339 12.4505Z" fill="#F7C592" stroke="#F7C592" stroke-width="2.26959" stroke-miterlimit="10"/>
<path d="M40.7497 12.4505C43.8744 12.4505 46.4075 9.91739 46.4075 6.79264C46.4075 3.66788 43.8744 1.13477 40.7497 1.13477C37.6249 1.13477 35.0918 3.66788 35.0918 6.79264C35.0918 9.91739 37.6249 12.4505 40.7497 12.4505Z" fill="#F7C592" stroke="#F7C592" stroke-width="2.26959" stroke-miterlimit="10"/>
<path d="M18.1142 23.7703C21.2389 23.7703 23.772 21.2372 23.772 18.1125C23.772 14.9877 21.2389 12.4546 18.1142 12.4546C14.9894 12.4546 12.4563 14.9877 12.4563 18.1125C12.4563 21.2372 14.9894 23.7703 18.1142 23.7703Z" fill="#F7C592" stroke="#F7C592" stroke-width="2.26959" stroke-miterlimit="10"/>
<path d="M29.4339 23.7703C32.5587 23.7703 35.0918 21.2372 35.0918 18.1125C35.0918 14.9877 32.5587 12.4546 29.4339 12.4546C26.3092 12.4546 23.7761 14.9877 23.7761 18.1125C23.7761 21.2372 26.3092 23.7703 29.4339 23.7703Z" fill="#F7C592" stroke="#F7C592" stroke-width="2.26959" stroke-miterlimit="10"/>
<path d="M40.7497 23.7703C43.8744 23.7703 46.4075 21.2372 46.4075 18.1125C46.4075 14.9877 43.8744 12.4546 40.7497 12.4546C37.6249 12.4546 35.0918 14.9877 35.0918 18.1125C35.0918 21.2372 37.6249 23.7703 40.7497 23.7703Z" fill="#F7C592" stroke="#F7C592" stroke-width="2.26959" stroke-miterlimit="10"/>
<path d="M52.0694 23.7703C55.1942 23.7703 57.7273 21.2372 57.7273 18.1125C57.7273 14.9877 55.1942 12.4546 52.0694 12.4546C48.9447 12.4546 46.4116 14.9877 46.4116 18.1125C46.4116 21.2372 48.9447 23.7703 52.0694 23.7703Z" fill="#F7C592" stroke="#F7C592" stroke-width="2.26959" stroke-miterlimit="10"/>
<path d="M18.1142 35.0902C21.2389 35.0902 23.772 32.557 23.772 29.4323C23.772 26.3075 21.2389 23.7744 18.1142 23.7744C14.9894 23.7744 12.4563 26.3075 12.4563 29.4323C12.4563 32.557 14.9894 35.0902 18.1142 35.0902Z" fill="#F7C592" stroke="#F7C592" stroke-width="2.26959" stroke-miterlimit="10"/>
<path d="M29.4339 35.0902C32.5587 35.0902 35.0918 32.557 35.0918 29.4323C35.0918 26.3075 32.5587 23.7744 29.4339 23.7744C26.3092 23.7744 23.7761 26.3075 23.7761 29.4323C23.7761 32.557 26.3092 35.0902 29.4339 35.0902Z" fill="#F7C592" stroke="#F7C592" stroke-width="2.26959" stroke-miterlimit="10"/>
<path d="M40.7497 35.0902C43.8744 35.0902 46.4075 32.557 46.4075 29.4323C46.4075 26.3075 43.8744 23.7744 40.7497 23.7744C37.6249 23.7744 35.0918 26.3075 35.0918 29.4323C35.0918 32.557 37.6249 35.0902 40.7497 35.0902Z" fill="#F7C592" stroke="#F7C592" stroke-width="2.26959" stroke-miterlimit="10"/>
<path d="M18.1142 46.4061C21.2389 46.4061 23.772 43.873 23.772 40.7482C23.772 37.6235 21.2389 35.0903 18.1142 35.0903C14.9894 35.0903 12.4563 37.6235 12.4563 40.7482C12.4563 43.873 14.9894 46.4061 18.1142 46.4061Z" fill="#F7C592" stroke="#F7C592" stroke-width="2.26959" stroke-miterlimit="10"/>
<path d="M29.4339 46.4061C32.5587 46.4061 35.0918 43.873 35.0918 40.7482C35.0918 37.6235 32.5587 35.0903 29.4339 35.0903C26.3092 35.0903 23.7761 37.6235 23.7761 40.7482C23.7761 43.873 26.3092 46.4061 29.4339 46.4061Z" fill="#F7C592" stroke="#F7C592" stroke-width="2.26959" stroke-miterlimit="10"/>
<path d="M18.1142 57.7259C21.2389 57.7259 23.772 55.1928 23.772 52.068C23.772 48.9433 21.2389 46.4102 18.1142 46.4102C14.9894 46.4102 12.4563 48.9433 12.4563 52.068C12.4563 55.1928 14.9894 57.7259 18.1142 57.7259Z" fill="#F7C592" stroke="#F7C592" stroke-width="2.26959" stroke-miterlimit="10"/>
<path d="M29.4339 57.7259C32.5587 57.7259 35.0918 55.1928 35.0918 52.068C35.0918 48.9433 32.5587 46.4102 29.4339 46.4102C26.3092 46.4102 23.7761 48.9433 23.7761 52.068C23.7761 55.1928 26.3092 57.7259 29.4339 57.7259Z" fill="#F7C592" stroke="#F7C592" stroke-width="2.26959" stroke-miterlimit="10"/>
<path d="M18.1142 69.0413C21.2389 69.0413 23.772 66.5082 23.772 63.3835C23.772 60.2587 21.2389 57.7256 18.1142 57.7256C14.9894 57.7256 12.4563 60.2587 12.4563 63.3835C12.4563 66.5082 14.9894 69.0413 18.1142 69.0413Z" fill="#F7C592" stroke="#F7C592" stroke-width="2.26959" stroke-miterlimit="10"/>
<path d="M29.4339 69.0413C32.5587 69.0413 35.0918 66.5082 35.0918 63.3835C35.0918 60.2587 32.5587 57.7256 29.4339 57.7256C26.3092 57.7256 23.7761 60.2587 23.7761 63.3835C23.7761 66.5082 26.3092 69.0413 29.4339 69.0413Z" fill="#F7C592" stroke="#F7C592" stroke-width="2.26959" stroke-miterlimit="10"/>
</g>
<defs>
<clipPath id="clip0_81_30525">
<rect width="58.8637" height="70.1802" fill="white"/>
</clipPath>
</defs>
</svg>
